League Mono-Medium.ufo
<glyph name="exclam" format="1">
  <advance width="600"/>
  <unicode hex="0021"/>
  <outline>
    <contour>
      <point x="338" y="-11"/>
      <point x="371" y="22"/>
      <point x="371" y="64" type="curve" smooth="yes"/>
      <point x="371" y="104"/>
      <point x="338" y="137"/>
      <point x="296" y="137" type="curve" smooth="yes"/>
      <point x="254" y="137"/>
      <point x="221" y="104"/>
      <point x="221" y="64" type="curve" smooth="yes"/>
      <point x="221" y="22"/>
      <point x="254" y="-11"/>
      <point x="296" y="-11" type="curve" smooth="yes"/>
    </contour>
    <contour>
      <point x="343" y="211" type="line"/>
      <point x="357" y="700" type="line"/>
      <point x="234" y="700" type="line"/>
      <point x="248" y="211" type="line"/>
    </contour>
  </outline>
</glyph>
<glyph name="numbersign" format="1">
  <advance width="600"/>
  <unicode hex="0023"/>
  <outline>
    <contour>
      <point x="171" y="700" type="line"/>
      <point x="90" y="0" type="line"/>
      <point x="200" y="0" type="line"/>
      <point x="281" y="700" type="line"/>
    </contour>
    <contour>
      <point x="387" y="700" type="line"/>
      <point x="306" y="0" type="line"/>
      <point x="416" y="0" type="line"/>
      <point x="497" y="700" type="line"/>
    </contour>
    <contour>
      <point x="15" y="175" type="line"/>
      <point x="527" y="175" type="line"/>
      <point x="538" y="269" type="line"/>
      <point x="26" y="269" type="line"/>
    </contour>
    <contour>
      <point x="48" y="420" type="line"/>
      <point x="560" y="420" type="line"/>
      <point x="571" y="514" type="line"/>
      <point x="59" y="514" type="line"/>
    </contour>
  </outline>
</glyph>
<glyph name="dollar" format="1">
  <advance width="600"/>
  <unicode hex="0024"/>
  <outline>
    <contour>
      <point x="258" y="-130" type="line"/>
      <point x="345" y="-130" type="line"/>
      <point x="345" y="800" type="line"/>
      <point x="258" y="800" type="line"/>
    </contour>
    <contour>
      <point x="240" y="437"/>
      <point x="168" y="463"/>
      <point x="168" y="529" type="curve" smooth="yes"/>
      <point x="168" y="601"/>
      <point x="247" y="610"/>
      <point x="304" y="610" type="curve" smooth="yes"/>
      <point x="368" y="610"/>
      <point x="426" y="583"/>
      <point x="449" y="530" type="curve"/>
      <point x="545" y="582" type="line"/>
      <point x="500" y="672"/>
      <point x="406" y="706"/>
      <point x="314" y="706" type="curve" smooth="yes"/>
      <point x="206" y="706"/>
      <point x="63" y="670"/>
      <point x="63" y="530" type="curve" smooth="yes"/>
      <point x="63" y="382"/>
      <point x="223" y="332"/>
      <point x="293" y="308" type="curve" smooth="yes"/>
      <point x="359" y="285"/>
      <point x="448" y="269"/>
      <point x="448" y="187" type="curve" smooth="yes"/>
      <point x="448" y="102"/>
      <point x="373" y="85"/>
      <point x="293" y="85" type="curve" smooth="yes"/>
      <point x="209" y="85"/>
      <point x="156" y="115"/>
      <point x="133" y="165" type="curve"/>
      <point x="37" y="113" type="line"/>
      <point x="82" y="23"/>
      <point x="181" y="-11"/>
      <point x="293" y="-11" type="curve" smooth="yes"/>
      <point x="414" y="-11"/>
      <point x="555" y="35"/>
      <point x="555" y="187" type="curve" smooth="yes"/>
      <point x="555" y="339"/>
      <point x="377" y="388"/>
      <point x="293" y="418" type="curve" smooth="yes"/>
    </contour>
  </outline>
</glyph>
<glyph name="percent" format="1">
  <advance width="600"/>
  <unicode hex="0025"/>
  <outline>
    <contour>
      <point x="443" y="700" type="line"/>
      <point x="47" y="0" type="line"/>
      <point x="163" y="0" type="line"/>
      <point x="559" y="700" type="line"/>
    </contour>
    <contour>
      <point x="227" y="425"/>
      <point x="283" y="460"/>
      <point x="283" y="557" type="curve" smooth="yes"/>
      <point x="283" y="653"/>
      <point x="227" y="688"/>
      <point x="162" y="688" type="curve" smooth="yes"/>
      <point x="97" y="688"/>
      <point x="41" y="653"/>
      <point x="41" y="557" type="curve" smooth="yes"/>
      <point x="41" y="460"/>
      <point x="97" y="425"/>
      <point x="162" y="425" type="curve" smooth="yes"/>
    </contour>
    <contour>
      <point x="141" y="497"/>
      <point x="123" y="512"/>
      <point x="123" y="557" type="curve" smooth="yes"/>
      <point x="123" y="601"/>
      <point x="141" y="616"/>
      <point x="162" y="616" type="curve" smooth="yes"/>
      <point x="182" y="616"/>
      <point x="201" y="601"/>
      <point x="201" y="557" type="curve" smooth="yes"/>
      <point x="201" y="512"/>
      <point x="182" y="497"/>
      <point x="162" y="497" type="curve" smooth="yes"/>
    </contour>
    <contour>
      <point x="515" y="5"/>
      <point x="571" y="40"/>
      <point x="571" y="137" type="curve" smooth="yes"/>
      <point x="571" y="233"/>
      <point x="515" y="268"/>
      <point x="450" y="268" type="curve" smooth="yes"/>
      <point x="385" y="268"/>
      <point x="329" y="233"/>
      <point x="329" y="137" type="curve" smooth="yes"/>
      <point x="329" y="40"/>
      <point x="385" y="5"/>
      <point x="450" y="5" type="curve" smooth="yes"/>
    </contour>
    <contour>
      <point x="430" y="77"/>
      <point x="411" y="92"/>
      <point x="411" y="137" type="curve" smooth="yes"/>
      <point x="411" y="181"/>
      <point x="430" y="196"/>
      <point x="450" y="196" type="curve" smooth="yes"/>
      <point x="471" y="196"/>
      <point x="489" y="181"/>
      <point x="489" y="137" type="curve" smooth="yes"/>
      <point x="489" y="92"/>
      <point x="471" y="77"/>
      <point x="450" y="77" type="curve" smooth="yes"/>
    </contour>
  </outline>
</glyph>
<glyph name="ampersand" format="1">
  <advance width="600"/>
  <unicode hex="0026"/>
  <outline>
    <contour>
      <point x="340" y="-8"/>
      <point x="405" y="19"/>
      <point x="428" y="37" type="curve"/>
      <point x="449" y="0" type="line"/>
      <point x="553" y="0" type="line"/>
      <point x="495" y="93" type="line"/>
      <point x="526" y="130"/>
      <point x="550" y="178"/>
      <point x="550" y="290" type="curve" smooth="yes"/>
      <point x="550" y="293" type="line"/>
      <point x="453" y="293" type="line"/>
      <point x="453" y="290" type="line" smooth="yes"/>
      <point x="453" y="237"/>
      <point x="449" y="199"/>
      <point x="439" y="183" type="curve"/>
      <point x="316" y="375" type="line"/>
      <point x="378" y="426"/>
      <point x="425" y="482"/>
      <point x="425" y="569" type="curve" smooth="yes"/>
      <point x="425" y="656"/>
      <point x="366" y="706"/>
      <point x="274" y="706" type="curve" smooth="yes"/>
      <point x="182" y="706"/>
      <point x="110" y="651"/>
      <point x="114" y="565" type="curve" smooth="yes"/>
      <point x="117" y="499"/>
      <point x="145" y="465"/>
      <point x="189" y="401" type="curve"/>
      <point x="108" y="346"/>
      <point x="53" y="266"/>
      <point x="53" y="185" type="curve" smooth="yes"/>
      <point x="53" y="68"/>
      <point x="137" y="-8"/>
      <point x="274" y="-8" type="curve" smooth="yes"/>
    </contour>
    <contour>
      <point x="204" y="88"/>
      <point x="158" y="130"/>
      <point x="158" y="186" type="curve" smooth="yes"/>
      <point x="158" y="241"/>
      <point x="190" y="283"/>
      <point x="242" y="321" type="curve"/>
      <point x="375" y="115" type="line"/>
      <point x="366" y="107"/>
      <point x="333" y="88"/>
      <point x="269" y="88" type="curve" smooth="yes"/>
    </contour>
    <contour>
      <point x="236" y="491"/>
      <point x="211" y="523"/>
      <point x="211" y="565" type="curve" smooth="yes"/>
      <point x="211" y="600"/>
      <point x="237" y="622"/>
      <point x="274" y="622" type="curve" smooth="yes"/>
      <point x="311" y="622"/>
      <point x="332" y="601"/>
      <point x="332" y="563" type="curve" smooth="yes"/>
      <point x="332" y="524"/>
      <point x="308" y="490"/>
      <point x="266" y="450" type="curve"/>
    </contour>
  </outline>
</glyph>
<glyph name="quotesingle" format="1">
  <advance width="600"/>
  <unicode hex="0027"/>
  <outline>
    <contour>
      <point x="263" y="517" type="line"/>
      <point x="336" y="517" type="line"/>
      <point x="357" y="757" type="line"/>
      <point x="242" y="757" type="line"/>
    </contour>
  </outline>
</glyph>
<glyph name="parenleft" format="1">
  <advance width="600"/>
  <unicode hex="0028"/>
  <outline>
    <contour>
      <point x="481" y="-180" type="line"/>
      <point x="475" y="-171"/>
      <point x="328" y="18"/>
      <point x="328" y="294" type="curve" smooth="yes"/>
      <point x="328" y="569"/>
      <point x="475" y="759"/>
      <point x="481" y="767" type="curve"/>
      <point x="390" y="813" type="line"/>
      <point x="384" y="804"/>
      <point x="215" y="620"/>
      <point x="215" y="294" type="curve" smooth="yes"/>
      <point x="215" y="-33"/>
      <point x="384" y="-217"/>
      <point x="390" y="-226" type="curve"/>
    </contour>
  </outline>
</glyph>
<glyph name="asterisk" format="1">
  <advance width="600"/>
  <unicode hex="002A"/>
  <outline>
    <contour>
      <point x="421" y="556" type="line"/>
      <point x="334" y="665" type="line"/>
      <point x="281" y="624" type="line"/>
      <point x="356" y="509" type="line"/>
    </contour>
    <contour>
      <point x="317" y="624" type="line"/>
      <point x="265" y="665" type="line"/>
      <point x="177" y="556" type="line"/>
      <point x="242" y="509" type="line"/>
    </contour>
    <contour>
      <point x="299" y="690" type="line"/>
      <point x="168" y="738" type="line"/>
      <point x="143" y="661" type="line"/>
      <point x="281" y="624" type="line"/>
    </contour>
    <contour>
      <point x="322" y="616"/>
      <point x="340" y="633"/>
      <point x="340" y="656" type="curve" smooth="yes"/>
      <point x="340" y="677"/>
      <point x="322" y="697"/>
      <point x="299" y="697" type="curve" smooth="yes"/>
      <point x="275" y="697"/>
      <point x="257" y="677"/>
      <point x="257" y="656" type="curve" smooth="yes"/>
      <point x="257" y="633"/>
      <point x="275" y="616"/>
      <point x="299" y="616" type="curve" smooth="yes"/>
    </contour>
    <contour>
      <point x="334" y="665" type="line"/>
      <point x="341" y="800" type="line"/>
      <point x="258" y="800" type="line"/>
      <point x="265" y="665" type="line"/>
    </contour>
    <contour>
      <point x="455" y="661" type="line"/>
      <point x="430" y="738" type="line"/>
      <point x="299" y="690" type="line"/>
      <point x="317" y="624" type="line"/>
    </contour>
  </outline>
</glyph>
<glyph name="plus" format="1">
  <advance width="600"/>
  <unicode hex="002B"/>
  <outline>
    <contour>
      <point x="106" y="257" type="line"/>
      <point x="499" y="257" type="line"/>
      <point x="499" y="351" type="line"/>
      <point x="106" y="351" type="line"/>
    </contour>
    <contour>
      <point x="350" y="107" type="line"/>
      <point x="350" y="500" type="line"/>
      <point x="256" y="500" type="line"/>
      <point x="256" y="107" type="line"/>
    </contour>
  </outline>
</glyph>
<glyph name="comma" format="1">
  <advance width="600"/>
  <unicode hex="002C"/>
  <outline>
    <contour>
      <point x="303" y="-14"/>
      <point x="341" y="24"/>
      <point x="341" y="72" type="curve" smooth="yes"/>
      <point x="341" y="119"/>
      <point x="303" y="156"/>
      <point x="256" y="156" type="curve" smooth="yes"/>
      <point x="209" y="156"/>
      <point x="171" y="119"/>
      <point x="171" y="72" type="curve" smooth="yes"/>
      <point x="171" y="24"/>
      <point x="209" y="-14"/>
      <point x="256" y="-14" type="curve" smooth="yes"/>
    </contour>
    <contour>
      <point x="192" y="-111" type="line"/>
      <point x="261" y="-138" type="line"/>
      <point x="333" y="35" type="line"/>
      <point x="235" y="25" type="line"/>
    </contour>
  </outline>
</glyph>
<glyph name="hyphen" format="1">
  <advance width="600"/>
  <unicode hex="002D"/>
  <outline>
    <contour>
      <point x="145" y="257" type="line"/>
      <point x="449" y="257" type="line"/>
      <point x="449" y="351" type="line"/>
      <point x="145" y="351" type="line"/>
    </contour>
  </outline>
</glyph>
<glyph name="period" format="1">
  <advance width="600"/>
  <unicode hex="002E"/>
  <outline>
    <contour>
      <point x="346" y="-11"/>
      <point x="387" y="29"/>
      <point x="387" y="80" type="curve" smooth="yes"/>
      <point x="387" y="130"/>
      <point x="346" y="170"/>
      <point x="296" y="170" type="curve" smooth="yes"/>
      <point x="246" y="170"/>
      <point x="205" y="130"/>
      <point x="205" y="80" type="curve" smooth="yes"/>
      <point x="205" y="29"/>
      <point x="246" y="-11"/>
      <point x="296" y="-11" type="curve" smooth="yes"/>
    </contour>
  </outline>
</glyph>
<glyph name="zero" format="1">
  <advance width="600"/>
  <unicode hex="0030"/>
  <outline>
    <contour>
      <point x="426" y="-11"/>
      <point x="539" y="60"/>
      <point x="539" y="348" type="curve" smooth="yes"/>
      <point x="539" y="635"/>
      <point x="426" y="706"/>
      <point x="302" y="706" type="curve" smooth="yes"/>
      <point x="177" y="706"/>
      <point x="64" y="635"/>
      <point x="64" y="348" type="curve" smooth="yes"/>
      <point x="64" y="60"/>
      <point x="177" y="-11"/>
      <point x="302" y="-11" type="curve" smooth="yes"/>
    </contour>
    <contour>
      <point x="239" y="85"/>
      <point x="181" y="130"/>
      <point x="181" y="348" type="curve" smooth="yes"/>
      <point x="181" y="565"/>
      <point x="239" y="610"/>
      <point x="302" y="610" type="curve" smooth="yes"/>
      <point x="364" y="610"/>
      <point x="422" y="565"/>
      <point x="422" y="348" type="curve" smooth="yes"/>
      <point x="422" y="130"/>
      <point x="364" y="85"/>
      <point x="302" y="85" type="curve" smooth="yes"/>
    </contour>
    <contour>
      <point x="332" y="262"/>
      <point x="359" y="276"/>
      <point x="359" y="348" type="curve" smooth="yes"/>
      <point x="359" y="419"/>
      <point x="332" y="433"/>
      <point x="302" y="433" type="curve" smooth="yes"/>
      <point x="271" y="433"/>
      <point x="244" y="419"/>
      <point x="244" y="348" type="curve" smooth="yes"/>
      <point x="244" y="276"/>
      <point x="271" y="262"/>
      <point x="302" y="262" type="curve" smooth="yes"/>
    </contour>
  </outline>
</glyph>
<glyph name="one" format="1">
  <advance width="600"/>
  <unicode hex="0031"/>
  <outline>
    <contour>
      <point x="140" y="500" type="line"/>
      <point x="259" y="573" type="line"/>
      <point x="278" y="700" type="line"/>
      <point x="93" y="589" type="line"/>
    </contour>
    <contour>
      <point x="372" y="56" type="line"/>
      <point x="372" y="700" type="line"/>
      <point x="278" y="700" type="line"/>
      <point x="259" y="573" type="line"/>
      <point x="259" y="31" type="line"/>
    </contour>
    <contour>
      <point x="125" y="0" type="line"/>
      <point x="497" y="0" type="line"/>
      <point x="497" y="95" type="line"/>
      <point x="125" y="95" type="line"/>
    </contour>
  </outline>
</glyph>
<glyph name="two" format="1">
  <advance width="600"/>
  <unicode hex="0032"/>
  <outline>
    <contour>
      <point x="249" y="95" type="line"/>
      <point x="268" y="108"/>
      <point x="325" y="159"/>
      <point x="374" y="216" type="curve" smooth="yes"/>
      <point x="456" y="310"/>
      <point x="520" y="404"/>
      <point x="520" y="505" type="curve" smooth="yes"/>
      <point x="520" y="617"/>
      <point x="443" y="706"/>
      <point x="305" y="706" type="curve" smooth="yes"/>
      <point x="204" y="706"/>
      <point x="117" y="660"/>
      <point x="76" y="579" type="curve"/>
      <point x="176" y="527" type="line"/>
      <point x="197" y="573"/>
      <point x="242" y="610"/>
      <point x="301" y="610" type="curve" smooth="yes"/>
      <point x="364" y="610"/>
      <point x="402" y="571"/>
      <point x="402" y="503" type="curve" smooth="yes"/>
      <point x="402" y="425"/>
      <point x="343" y="338"/>
      <point x="275" y="263" type="curve" smooth="yes"/>
      <point x="222" y="203"/>
      <point x="149" y="145"/>
      <point x="82" y="95" type="curve"/>
    </contour>
    <contour>
      <point x="517" y="0" type="line"/>
      <point x="517" y="95" type="line"/>
      <point x="82" y="95" type="line"/>
      <point x="82" y="0" type="line"/>
    </contour>
  </outline>
</glyph>
<glyph name="three" format="1">
  <advance width="600"/>
  <unicode hex="0033"/>
  <outline>
    <contour>
      <point x="448" y="-11"/>
      <point x="539" y="67"/>
      <point x="539" y="196" type="curve" smooth="yes"/>
      <point x="539" y="290"/>
      <point x="482" y="360"/>
      <point x="357" y="371" type="curve" smooth="yes"/>
      <point x="353" y="371"/>
      <point x="279" y="307"/>
      <point x="285" y="307" type="curve" smooth="yes"/>
      <point x="395" y="307"/>
      <point x="424" y="257"/>
      <point x="424" y="197" type="curve" smooth="yes"/>
      <point x="424" y="130"/>
      <point x="386" y="85"/>
      <point x="307" y="85" type="curve" smooth="yes"/>
      <point x="239" y="85"/>
      <point x="185" y="118"/>
      <point x="163" y="168" type="curve"/>
      <point x="65" y="116" type="line"/>
      <point x="103" y="40"/>
      <point x="193" y="-11"/>
      <point x="308" y="-11" type="curve" smooth="yes"/>
    </contour>
    <contour>
      <point x="401" y="307" type="line"/>
      <point x="401" y="401" type="line"/>
      <point x="253" y="401" type="line"/>
      <point x="253" y="307" type="line"/>
    </contour>
    <contour>
      <point x="475" y="364"/>
      <point x="525" y="433"/>
      <point x="525" y="520" type="curve" smooth="yes"/>
      <point x="525" y="639"/>
      <point x="434" y="706"/>
      <point x="303" y="706" type="curve" smooth="yes"/>
      <point x="197" y="706"/>
      <point x="115" y="653"/>
      <point x="78" y="579" type="curve"/>
      <point x="176" y="527" type="line"/>
      <point x="197" y="575"/>
      <point x="244" y="610"/>
      <point x="303" y="610" type="curve" smooth="yes"/>
      <point x="373" y="610"/>
      <point x="410" y="583"/>
      <point x="410" y="516" type="curve" smooth="yes"/>
      <point x="410" y="460"/>
      <point x="395" y="401"/>
      <point x="285" y="401" type="curve" smooth="yes"/>
      <point x="279" y="401"/>
      <point x="347" y="336"/>
      <point x="351" y="337" type="curve" smooth="yes"/>
    </contour>
  </outline>
</glyph>
<glyph name="four" format="1">
  <advance width="600"/>
  <unicode hex="0034"/>
  <outline>
    <contour>
      <point x="181" y="240" type="line"/>
      <point x="317" y="643" type="line"/>
      <point x="229" y="700" type="line"/>
      <point x="71" y="240" type="line"/>
    </contour>
    <contour>
      <point x="383" y="605" type="line"/>
      <point x="383" y="700" type="line"/>
      <point x="229" y="700" type="line"/>
      <point x="229" y="605" type="line"/>
    </contour>
    <contour>
      <point x="425" y="0" type="line"/>
      <point x="425" y="700" type="line"/>
      <point x="314" y="700" type="line"/>
      <point x="313" y="0" type="line"/>
    </contour>
    <contour>
      <point x="537" y="146" type="line"/>
      <point x="537" y="240" type="line"/>
      <point x="71" y="240" type="line"/>
      <point x="71" y="146" type="line"/>
    </contour>
  </outline>
</glyph>
<glyph name="five" format="1">
  <advance width="600"/>
  <unicode hex="0035"/>
  <outline>
    <contour>
      <point x="426" y="-11"/>
      <point x="523" y="74"/>
      <point x="523" y="231" type="curve" smooth="yes"/>
      <point x="523" y="387"/>
      <point x="447" y="467"/>
      <point x="310" y="467" type="curve" smooth="yes"/>
      <point x="223" y="467"/>
      <point x="148" y="419"/>
      <point x="120" y="329" type="curve"/>
      <point x="175" y="289" type="line"/>
      <point x="201" y="346"/>
      <point x="258" y="369"/>
      <point x="306" y="369" type="curve" smooth="yes"/>
      <point x="382" y="369"/>
      <point x="409" y="317"/>
      <point x="409" y="233" type="curve" smooth="yes"/>
      <point x="409" y="149"/>
      <point x="371" y="85"/>
      <point x="291" y="85" type="curve" smooth="yes"/>
      <point x="225" y="85"/>
      <point x="183" y="109"/>
      <point x="155" y="160" type="curve"/>
      <point x="56" y="106" type="line"/>
      <point x="105" y="21"/>
      <point x="183" y="-11"/>
      <point x="289" y="-11" type="curve" smooth="yes"/>
    </contour>
    <contour>
      <point x="212" y="673" type="line"/>
      <point x="112" y="700" type="line"/>
      <point x="76" y="331" type="line"/>
      <point x="175" y="289" type="line"/>
    </contour>
    <contour>
      <point x="487" y="605" type="line"/>
      <point x="487" y="700" type="line"/>
      <point x="112" y="700" type="line"/>
      <point x="118" y="605" type="line"/>
    </contour>
  </outline>
</glyph>
<glyph name="six" format="1">
  <advance width="600"/>
  <unicode hex="0036"/>
  <outline>
    <contour>
      <point x="490" y="681" type="line"/>
      <point x="459" y="696"/>
      <point x="410" y="709"/>
      <point x="347" y="706" type="curve" smooth="yes"/>
      <point x="211" y="699"/>
      <point x="64" y="596"/>
      <point x="64" y="328" type="curve" smooth="yes"/>
      <point x="64" y="75"/>
      <point x="152" y="-11"/>
      <point x="305" y="-11" type="curve"/>
      <point x="305" y="85" type="line"/>
      <point x="222" y="85"/>
      <point x="178" y="139"/>
      <point x="178" y="328" type="curve" smooth="yes"/>
      <point x="178" y="526"/>
      <point x="266" y="606"/>
      <point x="347" y="610" type="curve" smooth="yes"/>
      <point x="389" y="613"/>
      <point x="423" y="606"/>
      <point x="443" y="595" type="curve"/>
    </contour>
    <contour>
      <point x="305" y="-11" type="line"/>
      <point x="448" y="-11"/>
      <point x="533" y="81"/>
      <point x="533" y="232" type="curve" smooth="yes"/>
      <point x="533" y="385"/>
      <point x="465" y="469"/>
      <point x="322" y="469" type="curve" smooth="yes"/>
      <point x="231" y="469"/>
      <point x="170" y="423"/>
      <point x="122" y="333" type="curve"/>
      <point x="176" y="286" type="line"/>
      <point x="201" y="339"/>
      <point x="254" y="370"/>
      <point x="318" y="370" type="curve" smooth="yes"/>
      <point x="392" y="370"/>
      <point x="419" y="321"/>
      <point x="419" y="232" type="curve" smooth="yes"/>
      <point x="419" y="145"/>
      <point x="378" y="85"/>
      <point x="305" y="85" type="curve"/>
    </contour>
  </outline>
</glyph>
<glyph name="seven" format="1">
  <advance width="600"/>
  <unicode hex="0037"/>
  <outline>
    <contour>
      <point x="404" y="605" type="line"/>
      <point x="124" y="0" type="line"/>
      <point x="246" y="0" type="line"/>
      <point x="518" y="605" type="line"/>
    </contour>
    <contour>
      <point x="518" y="700" type="line"/>
      <point x="88" y="700" type="line"/>
      <point x="88" y="605" type="line"/>
      <point x="518" y="605" type="line"/>
    </contour>
  </outline>
</glyph>
<glyph name="eight" format="1">
  <advance width="600"/>
  <unicode hex="0038"/>
  <outline>
    <contour>
      <point x="445" y="-11"/>
      <point x="543" y="61"/>
      <point x="543" y="201" type="curve" smooth="yes"/>
      <point x="543" y="349"/>
      <point x="419" y="410"/>
      <point x="303" y="410" type="curve" smooth="yes"/>
      <point x="186" y="410"/>
      <point x="62" y="349"/>
      <point x="62" y="201" type="curve" smooth="yes"/>
      <point x="62" y="61"/>
      <point x="160" y="-11"/>
      <point x="303" y="-11" type="curve" smooth="yes"/>
    </contour>
    <contour>
      <point x="230" y="85"/>
      <point x="178" y="122"/>
      <point x="178" y="204" type="curve" smooth="yes"/>
      <point x="178" y="286"/>
      <point x="240" y="322"/>
      <point x="303" y="322" type="curve" smooth="yes"/>
      <point x="365" y="322"/>
      <point x="427" y="286"/>
      <point x="427" y="204" type="curve" smooth="yes"/>
      <point x="427" y="122"/>
      <point x="375" y="85"/>
      <point x="303" y="85" type="curve" smooth="yes"/>
    </contour>
    <contour>
      <point x="409" y="327"/>
      <point x="513" y="393"/>
      <point x="513" y="516" type="curve" smooth="yes"/>
      <point x="513" y="638"/>
      <point x="425" y="707"/>
      <point x="303" y="707" type="curve" smooth="yes"/>
      <point x="180" y="707"/>
      <point x="92" y="638"/>
      <point x="92" y="516" type="curve" smooth="yes"/>
      <point x="92" y="393"/>
      <point x="196" y="327"/>
      <point x="303" y="327" type="curve" smooth="yes"/>
    </contour>
    <contour>
      <point x="240" y="415"/>
      <point x="205" y="452"/>
      <point x="205" y="514" type="curve" smooth="yes"/>
      <point x="205" y="575"/>
      <point x="240" y="611"/>
      <point x="303" y="611" type="curve" smooth="yes"/>
      <point x="365" y="611"/>
      <point x="400" y="575"/>
      <point x="400" y="514" type="curve" smooth="yes"/>
      <point x="400" y="452"/>
      <point x="365" y="415"/>
      <point x="303" y="415" type="curve" smooth="yes"/>
    </contour>
  </outline>
</glyph>
<glyph name="nine" format="1">
  <advance width="600"/>
  <unicode hex="0039"/>
  <outline>
    <contour>
      <point x="292" y="707" type="line"/>
      <point x="149" y="707"/>
      <point x="64" y="616"/>
      <point x="64" y="465" type="curve" smooth="yes"/>
      <point x="64" y="312"/>
      <point x="137" y="227"/>
      <point x="280" y="227" type="curve" smooth="yes"/>
      <point x="371" y="227"/>
      <point x="432" y="273"/>
      <point x="480" y="363" type="curve"/>
      <point x="425" y="409" type="line"/>
      <point x="395" y="347"/>
      <point x="338" y="323"/>
      <point x="281" y="323" type="curve" smooth="yes"/>
      <point x="210" y="323"/>
      <point x="181" y="376"/>
      <point x="181" y="465" type="curve" smooth="yes"/>
      <point x="181" y="552"/>
      <point x="215" y="611"/>
      <point x="292" y="611" type="curve"/>
    </contour>
    <contour>
      <point x="123" y="0" type="line"/>
      <point x="135" y="0"/>
      <point x="229" y="-3"/>
      <point x="307" y="21" type="curve" smooth="yes"/>
      <point x="428" y="58"/>
      <point x="533" y="133"/>
      <point x="533" y="398" type="curve" smooth="yes"/>
      <point x="533" y="631"/>
      <point x="445" y="707"/>
      <point x="292" y="707" type="curve"/>
      <point x="292" y="611" type="line"/>
      <point x="375" y="611"/>
      <point x="416" y="567"/>
      <point x="416" y="398" type="curve" smooth="yes"/>
      <point x="416" y="206"/>
      <point x="366" y="143"/>
      <point x="297" y="118" type="curve" smooth="yes"/>
      <point x="233" y="94"/>
      <point x="141" y="94"/>
      <point x="123" y="94" type="curve"/>
    </contour>
  </outline>
</glyph>
<glyph name="less" format="1">
  <advance width="600"/>
  <unicode hex="003C"/>
  <outline>
    <contour>
      <point x="200" y="236" type="line"/>
      <point x="497" y="489" type="line"/>
      <point x="448" y="562" type="line"/>
      <point x="112" y="338" type="line"/>
    </contour>
    <contour>
      <point x="112" y="239" type="line"/>
      <point x="183" y="239" type="line"/>
      <point x="183" y="338" type="line"/>
      <point x="112" y="338" type="line"/>
    </contour>
    <contour>
      <point x="448" y="15" type="line"/>
      <point x="497" y="88" type="line"/>
      <point x="200" y="341" type="line"/>
      <point x="112" y="239" type="line"/>
    </contour>
  </outline>
</glyph>
<glyph name="equal" format="1">
  <advance width="600"/>
  <unicode hex="003D"/>
  <outline>
    <contour>
      <point x="102" y="165" type="line"/>
      <point x="495" y="165" type="line"/>
      <point x="495" y="259" type="line"/>
      <point x="102" y="259" type="line"/>
    </contour>
    <contour>
      <point x="102" y="349" type="line"/>
      <point x="495" y="349" type="line"/>
      <point x="495" y="443" type="line"/>
      <point x="102" y="443" type="line"/>
    </contour>
  </outline>
</glyph>
<glyph name="question" format="1">
  <advance width="600"/>
  <unicode hex="003F"/>
  <outline>
    <contour>
      <point x="338" y="211" type="line"/>
      <point x="338" y="243" type="line"/>
      <point x="338" y="340"/>
      <point x="525" y="385"/>
      <point x="529" y="520" type="curve" smooth="yes"/>
      <point x="532" y="642"/>
      <point x="434" y="706"/>
      <point x="303" y="706" type="curve" smooth="yes"/>
      <point x="193" y="706"/>
      <point x="113" y="656"/>
      <point x="76" y="582" type="curve"/>
      <point x="173" y="527" type="line"/>
      <point x="194" y="575"/>
      <point x="244" y="610"/>
      <point x="303" y="610" type="curve" smooth="yes"/>
      <point x="379" y="610"/>
      <point x="413" y="581"/>
      <point x="410" y="517" type="curve" smooth="yes"/>
      <point x="407" y="419"/>
      <point x="232" y="394"/>
      <point x="232" y="231" type="curve"/>
      <point x="232" y="211" type="line"/>
    </contour>
    <contour>
      <point x="327" y="-11"/>
      <point x="360" y="22"/>
      <point x="360" y="63" type="curve" smooth="yes"/>
      <point x="360" y="104"/>
      <point x="327" y="137"/>
      <point x="286" y="137" type="curve" smooth="yes"/>
      <point x="245" y="137"/>
      <point x="212" y="104"/>
      <point x="212" y="63" type="curve" smooth="yes"/>
      <point x="212" y="22"/>
      <point x="245" y="-11"/>
      <point x="286" y="-11" type="curve" smooth="yes"/>
    </contour>
  </outline>
</glyph>
<glyph name="at" format="1">
  <advance width="600"/>
  <unicode hex="0040"/>
  <outline>
    <contour>
      <point x="347" y="-11"/>
      <point x="407" y="10"/>
      <point x="412" y="13" type="curve"/>
      <point x="370" y="91" type="line"/>
      <point x="370" y="91"/>
      <point x="340" y="72"/>
      <point x="263" y="75" type="curve" smooth="yes"/>
      <point x="140" y="80"/>
      <point x="78" y="163"/>
      <point x="95" y="351" type="curve" smooth="yes"/>
      <point x="112" y="553"/>
      <point x="205" y="625"/>
      <point x="338" y="624" type="curve" smooth="yes"/>
      <point x="471" y="623"/>
      <point x="526" y="548"/>
      <point x="508" y="361" type="curve" smooth="yes"/>
      <point x="497" y="247"/>
      <point x="483" y="190"/>
      <point x="444" y="197" type="curve" smooth="yes"/>
      <point x="416" y="202"/>
      <point x="426" y="282"/>
      <point x="432" y="337" type="curve" smooth="yes"/>
      <point x="436" y="373"/>
      <point x="453" y="521"/>
      <point x="453" y="521" type="curve" smooth="yes"/>
      <point x="453" y="521"/>
      <point x="402" y="550"/>
      <point x="336" y="552" type="curve" smooth="yes"/>
      <point x="241" y="555"/>
      <point x="169" y="491"/>
      <point x="156" y="347" type="curve" smooth="yes"/>
      <point x="143" y="201"/>
      <point x="191" y="145"/>
      <point x="268" y="145" type="curve" smooth="yes"/>
      <point x="318" y="145"/>
      <point x="361" y="181"/>
      <point x="370" y="210" type="curve"/>
      <point x="368" y="174"/>
      <point x="387" y="125"/>
      <point x="437" y="116" type="curve" smooth="yes"/>
      <point x="537" y="99"/>
      <point x="578" y="194"/>
      <point x="592" y="351" type="curve" smooth="yes"/>
      <point x="616" y="614"/>
      <point x="501" y="704"/>
      <point x="353" y="706" type="curve" smooth="yes"/>
      <point x="198" y="708"/>
      <point x="21" y="643"/>
      <point x="4" y="348" type="curve" smooth="yes"/>
      <point x="-13" y="50"/>
      <point x="136" y="-6"/>
      <point x="263" y="-9" type="curve" smooth="yes"/>
    </contour>
    <contour>
      <point x="247" y="237"/>
      <point x="233" y="266"/>
      <point x="243" y="345" type="curve" smooth="yes"/>
      <point x="253" y="429"/>
      <point x="275" y="467"/>
      <point x="323" y="464" type="curve" smooth="yes"/>
      <point x="352" y="463"/>
      <point x="365" y="457"/>
      <point x="365" y="457" type="curve"/>
      <point x="365" y="457"/>
      <point x="354" y="356"/>
      <point x="352" y="339" type="curve" smooth="yes"/>
      <point x="343" y="255"/>
      <point x="316" y="235"/>
      <point x="286" y="236" type="curve" smooth="yes"/>
    </contour>
  </outline>
</glyph>
<glyph name="A" format="1">
  <advance width="600"/>
  <unicode hex="0041"/>
  <outline>
    <contour>
      <point x="42" y="0" type="line"/>
      <point x="157" y="0" type="line"/>
      <point x="314" y="700" type="line"/>
      <point x="199" y="700" type="line"/>
    </contour>
    <contour>
      <point x="286" y="700" type="line"/>
      <point x="443" y="0" type="line"/>
      <point x="558" y="0" type="line"/>
      <point x="401" y="700" type="line"/>
    </contour>
    <contour>
      <point x="221" y="618" type="line"/>
      <point x="379" y="618" type="line"/>
      <point x="379" y="700" type="line"/>
      <point x="221" y="700" type="line"/>
    </contour>
    <contour>
      <point x="129" y="191" type="line"/>
      <point x="471" y="191" type="line"/>
      <point x="471" y="286" type="line"/>
      <point x="129" y="286" type="line"/>
    </contour>
  </outline>
</glyph>
<glyph name="B" format="1">
  <advance width="600"/>
  <unicode hex="0042"/>
  <outline>
    <contour>
      <point x="423" y="370"/>
      <point x="514" y="386"/>
      <point x="514" y="529" type="curve" smooth="yes"/>
      <point x="514" y="690"/>
      <point x="397" y="700"/>
      <point x="313" y="700" type="curve" smooth="yes"/>
      <point x="85" y="700" type="line"/>
      <point x="85" y="0" type="line"/>
      <point x="364" y="0" type="line" smooth="yes"/>
      <point x="483" y="0"/>
      <point x="549" y="66"/>
      <point x="549" y="200" type="curve" smooth="yes"/>
      <point x="549" y="356"/>
      <point x="423" y="370"/>
      <point x="423" y="370" type="curve" smooth="yes"/>
    </contour>
    <contour>
      <point x="311" y="605" type="line" smooth="yes"/>
      <point x="373" y="605"/>
      <point x="396" y="589"/>
      <point x="396" y="515" type="curve" smooth="yes"/>
      <point x="396" y="442"/>
      <point x="375" y="408"/>
      <point x="315" y="408" type="curve" smooth="yes"/>
      <point x="197" y="408" type="line"/>
      <point x="197" y="605" type="line"/>
    </contour>
    <contour>
      <point x="197" y="95" type="line"/>
      <point x="197" y="314" type="line"/>
      <point x="338" y="314" type="line" smooth="yes"/>
      <point x="395" y="314"/>
      <point x="436" y="290"/>
      <point x="436" y="204" type="curve" smooth="yes"/>
      <point x="436" y="131"/>
      <point x="421" y="95"/>
      <point x="338" y="95" type="curve" smooth="yes"/>
    </contour>
  </outline>
</glyph>
<glyph name="C" format="1">
  <advance width="600"/>
  <unicode hex="0043"/>
  <outline>
    <contour>
      <point x="447" y="174" type="line"/>
      <point x="422" y="121"/>
      <point x="380" y="85"/>
      <point x="319" y="85" type="curve" smooth="yes"/>
      <point x="232" y="85"/>
      <point x="175" y="135"/>
      <point x="175" y="348" type="curve" smooth="yes"/>
      <point x="175" y="560"/>
      <point x="232" y="610"/>
      <point x="319" y="610" type="curve" smooth="yes"/>
      <point x="373" y="610"/>
      <point x="418" y="583"/>
      <point x="445" y="524" type="curve"/>
      <point x="547" y="579" type="line"/>
      <point x="499" y="669"/>
      <point x="423" y="706"/>
      <point x="319" y="706" type="curve" smooth="yes"/>
      <point x="166" y="706"/>
      <point x="58" y="630"/>
      <point x="58" y="348" type="curve" smooth="yes"/>
      <point x="58" y="65"/>
      <point x="166" y="-11"/>
      <point x="319" y="-11" type="curve" smooth="yes"/>
      <point x="417" y="-11"/>
      <point x="499" y="24"/>
      <point x="550" y="121" type="curve"/>
    </contour>
  </outline>
</glyph>
<glyph name="D" format="1">
  <advance width="600"/>
  <unicode hex="0044"/>
  <outline>
    <contour>
      <point x="565" y="350" type="line"/>
      <point x="565" y="700"/>
      <point x="400" y="700"/>
      <point x="295" y="700" type="curve" smooth="yes"/>
      <point x="98" y="700" type="line"/>
      <point x="98" y="350" type="line"/>
      <point x="210" y="350" type="line"/>
      <point x="210" y="402" type="line"/>
      <point x="210" y="605" type="line"/>
      <point x="298" y="605" type="line"/>
      <point x="410" y="605"/>
      <point x="449" y="553"/>
      <point x="449" y="350" type="curve"/>
    </contour>
    <contour>
      <point x="449" y="147"/>
      <point x="410" y="95"/>
      <point x="298" y="95" type="curve"/>
      <point x="210" y="95" type="line"/>
      <point x="210" y="298" type="line"/>
      <point x="210" y="350" type="line"/>
      <point x="98" y="350" type="line"/>
      <point x="98" y="0" type="line"/>
      <point x="295" y="0" type="line" smooth="yes"/>
      <point x="400" y="0"/>
      <point x="565" y="0"/>
      <point x="565" y="350" type="curve"/>
      <point x="449" y="350" type="line"/>
    </contour>
  </outline>
</glyph>
<glyph name="E" format="1">
  <advance width="600"/>
  <unicode hex="0045"/>
  <outline>
    <contour>
      <point x="212" y="0" type="line"/>
      <point x="212" y="700" type="line"/>
      <point x="100" y="700" type="line"/>
      <point x="100" y="0" type="line"/>
    </contour>
    <contour>
      <point x="169" y="0" type="line"/>
      <point x="524" y="0" type="line"/>
      <point x="524" y="95" type="line"/>
      <point x="169" y="95" type="line"/>
    </contour>
    <contour>
      <point x="169" y="297" type="line"/>
      <point x="470" y="297" type="line"/>
      <point x="470" y="391" type="line"/>
      <point x="169" y="391" type="line"/>
    </contour>
    <contour>
      <point x="169" y="605" type="line"/>
      <point x="524" y="605" type="line"/>
      <point x="524" y="700" type="line"/>
      <point x="169" y="700" type="line"/>
    </contour>
  </outline>
</glyph>
<glyph name="F" format="1">
  <advance width="600"/>
  <unicode hex="0046"/>
  <outline>
    <contour>
      <point x="237" y="0" type="line"/>
      <point x="237" y="700" type="line"/>
      <point x="125" y="700" type="line"/>
      <point x="125" y="0" type="line"/>
    </contour>
    <contour>
      <point x="193" y="297" type="line"/>
      <point x="505" y="297" type="line"/>
      <point x="505" y="391" type="line"/>
      <point x="193" y="391" type="line"/>
    </contour>
    <contour>
      <point x="193" y="605" type="line"/>
      <point x="545" y="605" type="line"/>
      <point x="545" y="700" type="line"/>
      <point x="193" y="700" type="line"/>
    </contour>
  </outline>
</glyph>
<glyph name="G" format="1">
  <advance width="600"/>
  <unicode hex="0047"/>
  <outline>
    <contour>
      <point x="431" y="144" type="line"/>
      <point x="416" y="112"/>
      <point x="375" y="85"/>
      <point x="308" y="85" type="curve" smooth="yes"/>
      <point x="224" y="85"/>
      <point x="161" y="131"/>
      <point x="161" y="348" type="curve" smooth="yes"/>
      <point x="161" y="565"/>
      <point x="229" y="610"/>
      <point x="312" y="610" type="curve" smooth="yes"/>
      <point x="372" y="610"/>
      <point x="404" y="583"/>
      <point x="433" y="524" type="curve"/>
      <point x="534" y="578" type="line"/>
      <point x="486" y="668"/>
      <point x="419" y="706"/>
      <point x="313" y="706" type="curve" smooth="yes"/>
      <point x="163" y="706"/>
      <point x="44" y="635"/>
      <point x="44" y="348" type="curve" smooth="yes"/>
      <point x="44" y="60"/>
      <point x="158" y="-11"/>
      <point x="308" y="-11" type="curve" smooth="yes"/>
      <point x="429" y="-11"/>
      <point x="507" y="47"/>
      <point x="542" y="107" type="curve"/>
    </contour>
    <contour>
      <point x="308" y="293" type="line"/>
      <point x="542" y="293" type="line"/>
      <point x="542" y="388" type="line"/>
      <point x="308" y="388" type="line"/>
    </contour>
    <contour>
      <point x="542" y="107" type="line"/>
      <point x="542" y="388" type="line"/>
      <point x="430" y="388" type="line"/>
      <point x="430" y="104" type="line"/>
    </contour>
  </outline>
</glyph>
<glyph name="H" format="1">
  <advance width="600"/>
  <unicode hex="0048"/>
  <outline>
    <contour>
      <point x="186" y="0" type="line"/>
      <point x="186" y="700" type="line"/>
      <point x="74" y="700" type="line"/>
      <point x="74" y="0" type="line"/>
    </contour>
    <contour>
      <point x="142" y="317" type="line"/>
      <point x="454" y="317" type="line"/>
      <point x="454" y="411" type="line"/>
      <point x="142" y="411" type="line"/>
    </contour>
    <contour>
      <point x="525" y="0" type="line"/>
      <point x="525" y="700" type="line"/>
      <point x="413" y="700" type="line"/>
      <point x="413" y="0" type="line"/>
    </contour>
  </outline>
</glyph>
<glyph name="I" format="1">
  <advance width="600"/>
  <unicode hex="0049"/>
  <outline>
    <contour>
      <point x="355" y="0" type="line"/>
      <point x="355" y="700" type="line"/>
      <point x="242" y="700" type="line"/>
      <point x="242" y="0" type="line"/>
    </contour>
    <contour>
      <point x="100" y="0" type="line"/>
      <point x="498" y="0" type="line"/>
      <point x="498" y="95" type="line"/>
      <point x="100" y="95" type="line"/>
    </contour>
    <contour>
      <point x="100" y="605" type="line"/>
      <point x="498" y="605" type="line"/>
      <point x="498" y="700" type="line"/>
      <point x="100" y="700" type="line"/>
    </contour>
  </outline>
</glyph>
<glyph name="J" format="1">
  <advance width="600"/>
  <unicode hex="004A"/>
  <outline>
    <contour>
      <point x="360" y="700" type="line"/>
      <point x="360" y="193" type="line"/>
      <point x="472" y="171" type="line"/>
      <point x="472" y="700" type="line"/>
    </contour>
    <contour>
      <point x="81" y="31" type="line"/>
      <point x="114" y="5"/>
      <point x="176" y="-9"/>
      <point x="245" y="-9" type="curve"/>
      <point x="364" y="-9"/>
      <point x="472" y="53"/>
      <point x="472" y="171" type="curve"/>
      <point x="360" y="193" type="line"/>
      <point x="360" y="115"/>
      <point x="313" y="87"/>
      <point x="238" y="87" type="curve"/>
      <point x="201" y="87"/>
      <point x="161" y="100"/>
      <point x="143" y="111" type="curve"/>
    </contour>
    <contour>
      <point x="127" y="605" type="line"/>
      <point x="445" y="605" type="line"/>
      <point x="445" y="700" type="line"/>
      <point x="127" y="700" type="line"/>
    </contour>
  </outline>
</glyph>
<glyph name="K" format="1">
  <advance width="600"/>
  <unicode hex="004B"/>
  <outline>
    <contour>
      <point x="209" y="0" type="line"/>
      <point x="209" y="700" type="line"/>
      <point x="97" y="700" type="line"/>
      <point x="97" y="0" type="line"/>
    </contour>
    <contour>
      <point x="165" y="312" type="line"/>
      <point x="307" y="312" type="line"/>
      <point x="307" y="406" type="line"/>
      <point x="165" y="406" type="line"/>
    </contour>
    <contour>
      <point x="223" y="379" type="line"/>
      <point x="324" y="346" type="line"/>
      <point x="565" y="700" type="line"/>
      <point x="439" y="700" type="line"/>
    </contour>
    <contour>
      <point x="582" y="0" type="line"/>
      <point x="319" y="379" type="line"/>
      <point x="196" y="379" type="line"/>
      <point x="456" y="0" type="line"/>
    </contour>
  </outline>
</glyph>
<glyph name="M" format="1">
  <advance width="600"/>
  <unicode hex="004D"/>
  <outline>
    <contour>
      <point x="146" y="0" type="line"/>
      <point x="164" y="700" type="line"/>
      <point x="74" y="700" type="line"/>
      <point x="34" y="0" type="line"/>
    </contour>
    <contour>
      <point x="566" y="0" type="line"/>
      <point x="526" y="700" type="line"/>
      <point x="436" y="700" type="line"/>
      <point x="454" y="0" type="line"/>
    </contour>
    <contour>
      <point x="306" y="292" type="line"/>
      <point x="284" y="68" type="line"/>
      <point x="350" y="68" type="line"/>
      <point x="434" y="464" type="line"/>
      <point x="463" y="700" type="line"/>
      <point x="393" y="700" type="line"/>
    </contour>
    <contour>
      <point x="137" y="700" type="line"/>
      <point x="166" y="465" type="line"/>
      <point x="250" y="68" type="line"/>
      <point x="316" y="68" type="line"/>
      <point x="294" y="292" type="line"/>
      <point x="207" y="700" type="line"/>
    </contour>
  </outline>
</glyph>
<glyph name="N" format="1">
  <advance width="600"/>
  <unicode hex="004E"/>
  <outline>
    <contour>
      <point x="187" y="0" type="line"/>
      <point x="187" y="700" type="line"/>
      <point x="75" y="700" type="line"/>
      <point x="75" y="0" type="line"/>
    </contour>
    <contour>
      <point x="101" y="700" type="line"/>
      <point x="396" y="0" type="line"/>
      <point x="501" y="0" type="line"/>
      <point x="206" y="700" type="line"/>
    </contour>
    <contour>
      <point x="527" y="0" type="line"/>
      <point x="527" y="700" type="line"/>
      <point x="415" y="700" type="line"/>
      <point x="415" y="0" type="line"/>
    </contour>
  </outline>
</glyph>
<glyph name="O" format="1">
  <advance width="600"/>
  <unicode hex="004F"/>
  <outline>
    <contour>
      <point x="446" y="-11"/>
      <point x="554" y="60"/>
      <point x="554" y="348" type="curve" smooth="yes"/>
      <point x="554" y="635"/>
      <point x="446" y="706"/>
      <point x="297" y="706" type="curve" smooth="yes"/>
      <point x="147" y="706"/>
      <point x="39" y="635"/>
      <point x="39" y="348" type="curve" smooth="yes"/>
      <point x="39" y="60"/>
      <point x="147" y="-11"/>
      <point x="297" y="-11" type="curve" smooth="yes"/>
    </contour>
    <contour>
      <point x="214" y="85"/>
      <point x="156" y="137"/>
      <point x="156" y="348" type="curve" smooth="yes"/>
      <point x="156" y="558"/>
      <point x="214" y="610"/>
      <point x="297" y="610" type="curve" smooth="yes"/>
      <point x="379" y="610"/>
      <point x="437" y="558"/>
      <point x="437" y="348" type="curve" smooth="yes"/>
      <point x="437" y="137"/>
      <point x="379" y="85"/>
      <point x="297" y="85" type="curve" smooth="yes"/>
    </contour>
  </outline>
</glyph>
<glyph name="P" format="1">
  <advance width="600"/>
  <unicode hex="0050"/>
  <outline>
    <contour>
      <point x="332" y="605" type="line" smooth="yes"/>
      <point x="397" y="605"/>
      <point x="447" y="597"/>
      <point x="447" y="476" type="curve" smooth="yes"/>
      <point x="447" y="345"/>
      <point x="397" y="332"/>
      <point x="332" y="332" type="curve" smooth="yes"/>
      <point x="220" y="332" type="line"/>
      <point x="220" y="605" type="line"/>
    </contour>
    <contour>
      <point x="416" y="237"/>
      <point x="560" y="255"/>
      <point x="560" y="479" type="curve" smooth="yes"/>
      <point x="560" y="690"/>
      <point x="416" y="700"/>
      <point x="332" y="700" type="curve" smooth="yes"/>
      <point x="108" y="700" type="line"/>
      <point x="108" y="0" type="line"/>
      <point x="220" y="0" type="line"/>
      <point x="220" y="237" type="line"/>
      <point x="332" y="237" type="line" smooth="yes"/>
    </contour>
  </outline>
</glyph>
<glyph name="Q" format="1">
  <advance width="600"/>
  <unicode hex="0051"/>
  <outline>
    <contour>
      <point x="443" y="-11"/>
      <point x="551" y="60"/>
      <point x="551" y="348" type="curve" smooth="yes"/>
      <point x="551" y="635"/>
      <point x="443" y="706"/>
      <point x="294" y="706" type="curve" smooth="yes"/>
      <point x="144" y="706"/>
      <point x="36" y="635"/>
      <point x="36" y="348" type="curve" smooth="yes"/>
      <point x="36" y="60"/>
      <point x="144" y="-11"/>
      <point x="294" y="-11" type="curve" smooth="yes"/>
    </contour>
    <contour>
      <point x="569" y="-14" type="line"/>
      <point x="446" y="110" type="line"/>
      <point x="368" y="31" type="line"/>
      <point x="489" y="-90" type="line"/>
    </contour>
    <contour>
      <point x="211" y="85"/>
      <point x="153" y="137"/>
      <point x="153" y="348" type="curve" smooth="yes"/>
      <point x="153" y="558"/>
      <point x="211" y="610"/>
      <point x="294" y="610" type="curve" smooth="yes"/>
      <point x="377" y="610"/>
      <point x="434" y="558"/>
      <point x="434" y="348" type="curve" smooth="yes"/>
      <point x="434" y="137"/>
      <point x="377" y="85"/>
      <point x="294" y="85" type="curve" smooth="yes"/>
    </contour>
  </outline>
</glyph>
<glyph name="R" format="1">
  <advance width="600"/>
  <unicode hex="0052"/>
  <outline>
    <contour>
      <point x="333" y="605" type="line" smooth="yes"/>
      <point x="396" y="605"/>
      <point x="428" y="580"/>
      <point x="428" y="498" type="curve" smooth="yes"/>
      <point x="428" y="404"/>
      <point x="400" y="382"/>
      <point x="336" y="382" type="curve" smooth="yes"/>
      <point x="201" y="382" type="line"/>
      <point x="201" y="605" type="line"/>
    </contour>
    <contour>
      <point x="420" y="287"/>
      <point x="541" y="312"/>
      <point x="541" y="499" type="curve" smooth="yes"/>
      <point x="541" y="683"/>
      <point x="417" y="700"/>
      <point x="333" y="700" type="curve" smooth="yes"/>
      <point x="89" y="700" type="line"/>
      <point x="89" y="0" type="line"/>
      <point x="201" y="0" type="line"/>
      <point x="201" y="287" type="line"/>
      <point x="336" y="287" type="line" smooth="yes"/>
    </contour>
    <contour>
      <point x="543" y="0" type="line"/>
      <point x="403" y="313" type="line"/>
      <point x="285" y="313" type="line"/>
      <point x="419" y="0" type="line"/>
    </contour>
  </outline>
</glyph>
<glyph name="S" format="1">
  <advance width="600"/>
  <unicode hex="0053"/>
  <outline>
    <contour>
      <point x="243" y="436"/>
      <point x="191" y="466"/>
      <point x="191" y="527" type="curve" smooth="yes"/>
      <point x="191" y="597"/>
      <point x="257" y="610"/>
      <point x="314" y="610" type="curve" smooth="yes"/>
      <point x="375" y="610"/>
      <point x="417" y="580"/>
      <point x="440" y="527" type="curve"/>
      <point x="538" y="579" type="line"/>
      <point x="495" y="669"/>
      <point x="410" y="706"/>
      <point x="314" y="706" type="curve" smooth="yes"/>
      <point x="200" y="706"/>
      <point x="73" y="665"/>
      <point x="73" y="528" type="curve" smooth="yes"/>
      <point x="73" y="382"/>
      <point x="220" y="334"/>
      <point x="290" y="310" type="curve" smooth="yes"/>
      <point x="356" y="287"/>
      <point x="431" y="266"/>
      <point x="431" y="189" type="curve" smooth="yes"/>
      <point x="431" y="106"/>
      <point x="367" y="85"/>
      <point x="293" y="85" type="curve" smooth="yes"/>
      <point x="217" y="85"/>
      <point x="164" y="118"/>
      <point x="141" y="168" type="curve"/>
      <point x="40" y="117" type="line"/>
      <point x="86" y="25"/>
      <point x="180" y="-11"/>
      <point x="293" y="-11" type="curve" smooth="yes"/>
      <point x="420" y="-11"/>
      <point x="548" y="38"/>
      <point x="548" y="190" type="curve" smooth="yes"/>
      <point x="548" y="345"/>
      <point x="380" y="387"/>
      <point x="296" y="417" type="curve" smooth="yes"/>
    </contour>
  </outline>
</glyph>
<glyph name="T" format="1">
  <advance width="600"/>
  <unicode hex="0054"/>
  <outline>
    <contour>
      <point x="355" y="0" type="line"/>
      <point x="355" y="700" type="line"/>
      <point x="242" y="700" type="line"/>
      <point x="242" y="0" type="line"/>
    </contour>
    <contour>
      <point x="60" y="605" type="line"/>
      <point x="538" y="605" type="line"/>
      <point x="538" y="700" type="line"/>
      <point x="60" y="700" type="line"/>
    </contour>
  </outline>
</glyph>
<glyph name="U" format="1">
  <advance width="600"/>
  <unicode hex="0055"/>
  <outline>
    <contour>
      <point x="443" y="-11"/>
      <point x="540" y="42"/>
      <point x="540" y="275" type="curve" smooth="yes"/>
      <point x="540" y="275"/>
      <point x="540" y="700"/>
      <point x="540" y="700" type="curve" smooth="yes"/>
      <point x="428" y="700" type="line" smooth="yes"/>
      <point x="428" y="700"/>
      <point x="428" y="302"/>
      <point x="428" y="302" type="curve" smooth="yes"/>
      <point x="428" y="119"/>
      <point x="379" y="85"/>
      <point x="301" y="85" type="curve" smooth="yes"/>
      <point x="223" y="85"/>
      <point x="173" y="119"/>
      <point x="173" y="302" type="curve" smooth="yes"/>
      <point x="173" y="302"/>
      <point x="173" y="700"/>
      <point x="173" y="700" type="curve" smooth="yes"/>
      <point x="61" y="700" type="line" smooth="yes"/>
      <point x="61" y="700"/>
      <point x="61" y="275"/>
      <point x="61" y="275" type="curve" smooth="yes"/>
      <point x="61" y="42"/>
      <point x="160" y="-11"/>
      <point x="301" y="-11" type="curve" smooth="yes"/>
    </contour>
  </outline>
</glyph>
<glyph name="V" format="1">
  <advance width="600"/>
  <unicode hex="0056"/>
  <outline>
    <contour>
      <point x="318" y="0" type="line"/>
      <point x="161" y="700" type="line"/>
      <point x="42" y="700" type="line"/>
      <point x="199" y="0" type="line"/>
    </contour>
    <contour>
      <point x="564" y="700" type="line"/>
      <point x="446" y="700" type="line"/>
      <point x="289" y="0" type="line"/>
      <point x="407" y="0" type="line"/>
    </contour>
    <contour>
      <point x="386" y="0" type="line"/>
      <point x="386" y="95" type="line"/>
      <point x="221" y="95" type="line"/>
      <point x="221" y="0" type="line"/>
    </contour>
  </outline>
</glyph>
<glyph name="W" format="1">
  <advance width="600"/>
  <unicode hex="0057"/>
  <outline>
    <contour>
      <point x="511" y="0" type="line"/>
      <point x="589" y="700" type="line"/>
      <point x="480" y="700" type="line"/>
      <point x="439" y="235" type="line"/>
      <point x="427" y="0" type="line"/>
    </contour>
    <contour>
      <point x="179" y="0" type="line"/>
      <point x="167" y="235" type="line"/>
      <point x="126" y="700" type="line"/>
      <point x="17" y="700" type="line"/>
      <point x="95" y="0" type="line"/>
    </contour>
    <contour>
      <point x="217" y="0" type="line"/>
      <point x="298" y="399" type="line"/>
      <point x="315" y="632" type="line"/>
      <point x="251" y="632" type="line"/>
      <point x="175" y="228" type="line"/>
      <point x="158" y="0" type="line"/>
    </contour>
    <contour>
      <point x="448" y="0" type="line"/>
      <point x="431" y="228" type="line"/>
      <point x="355" y="632" type="line"/>
      <point x="291" y="632" type="line"/>
      <point x="308" y="399" type="line"/>
      <point x="389" y="0" type="line"/>
    </contour>
  </outline>
</glyph>
<glyph name="X" format="1">
  <advance width="600"/>
  <unicode hex="0058"/>
  <outline>
    <contour>
      <point x="287" y="299" type="line"/>
      <point x="369" y="299" type="line"/>
      <point x="388" y="393" type="line"/>
      <point x="287" y="393" type="line"/>
    </contour>
    <contour>
      <point x="299" y="366" type="line"/>
      <point x="397" y="333" type="line"/>
      <point x="561" y="700" type="line"/>
      <point x="440" y="700" type="line"/>
    </contour>
    <contour>
      <point x="561" y="0" type="line"/>
      <point x="392" y="366" type="line"/>
      <point x="279" y="366" type="line"/>
      <point x="440" y="0" type="line"/>
    </contour>
    <contour>
      <point x="227" y="393" type="line"/>
      <point x="227" y="299" type="line"/>
      <point x="299" y="299" type="line"/>
      <point x="299" y="393" type="line"/>
    </contour>
    <contour>
      <point x="35" y="700" type="line"/>
      <point x="199" y="333" type="line"/>
      <point x="297" y="366" type="line"/>
      <point x="156" y="700" type="line"/>
    </contour>
    <contour>
      <point x="317" y="366" type="line"/>
      <point x="204" y="366" type="line"/>
      <point x="35" y="0" type="line"/>
      <point x="156" y="0" type="line"/>
    </contour>
  </outline>
</glyph>
<glyph name="Y" format="1">
  <advance width="600"/>
  <unicode hex="0059"/>
  <outline>
    <contour>
      <point x="301" y="400" type="line"/>
      <point x="357" y="271" type="line"/>
      <point x="565" y="700" type="line"/>
      <point x="438" y="700" type="line"/>
    </contour>
    <contour>
      <point x="35" y="700" type="line"/>
      <point x="246" y="266" type="line"/>
      <point x="299" y="400" type="line"/>
      <point x="162" y="700" type="line"/>
    </contour>
    <contour>
      <point x="357" y="0" type="line"/>
      <point x="357" y="400" type="line"/>
      <point x="244" y="400" type="line"/>
      <point x="244" y="0" type="line"/>
    </contour>
  </outline>
</glyph>
<glyph name="Z" format="1">
  <advance width="600"/>
  <unicode hex="005A"/>
  <outline>
    <contour>
      <point x="210" y="95" type="line"/>
      <point x="512" y="605" type="line"/>
      <point x="392" y="605" type="line"/>
      <point x="89" y="95" type="line"/>
    </contour>
    <contour>
      <point x="97" y="605" type="line"/>
      <point x="512" y="605" type="line"/>
      <point x="512" y="700" type="line"/>
      <point x="97" y="700" type="line"/>
    </contour>
    <contour>
      <point x="89" y="0" type="line"/>
      <point x="527" y="0" type="line"/>
      <point x="527" y="95" type="line"/>
      <point x="89" y="95" type="line"/>
    </contour>
  </outline>
</glyph>
<glyph name="bracketleft" format="1">
  <advance width="600"/>
  <unicode hex="005B"/>
  <outline>
    <contour>
      <point x="343" y="803" type="line"/>
      <point x="343" y="708" type="line"/>
      <point x="486" y="708" type="line"/>
      <point x="486" y="803" type="line"/>
    </contour>
    <contour>
      <point x="348" y="803" type="line"/>
      <point x="235" y="803" type="line"/>
      <point x="235" y="-203" type="line"/>
      <point x="348" y="-203" type="line"/>
    </contour>
    <contour>
      <point x="343" y="-108" type="line"/>
      <point x="343" y="-203" type="line"/>
      <point x="486" y="-203" type="line"/>
      <point x="486" y="-108" type="line"/>
    </contour>
  </outline>
</glyph>
<glyph name="backslash" format="1">
  <advance width="600"/>
  <unicode hex="005C"/>
  <outline>
    <contour>
      <point x="376" y="-142" type="line"/>
      <point x="476" y="-142" type="line"/>
      <point x="227" y="800" type="line"/>
      <point x="127" y="800" type="line"/>
    </contour>
  </outline>
</glyph>
<glyph name="asciicircum" format="1">
  <advance width="600"/>
  <unicode hex="005E"/>
  <outline>
    <contour>
      <point x="456" y="574" type="line"/>
      <point x="372" y="800" type="line"/>
      <point x="234" y="800" type="line"/>
      <point x="150" y="574" type="line"/>
      <point x="246" y="574" type="line"/>
      <point x="297" y="717" type="line"/>
      <point x="309" y="717" type="line"/>
      <point x="360" y="574" type="line"/>
    </contour>
  </outline>
</glyph>
<glyph name="underscore" format="1">
  <advance width="600"/>
  <unicode hex="005F"/>
  <outline>
    <contour>
      <point x="39" y="-146" type="line"/>
      <point x="561" y="-146" type="line"/>
      <point x="561" y="-52" type="line"/>
      <point x="39" y="-52" type="line"/>
    </contour>
  </outline>
</glyph>
<glyph name="grave" format="1">
  <advance width="600"/>
  <unicode hex="0060"/>
  <outline>
    <contour>
      <point x="320" y="752" type="line"/>
      <point x="173" y="752" type="line"/>
      <point x="318" y="609" type="line"/>
      <point x="424" y="609" type="line"/>
    </contour>
  </outline>
</glyph>
<glyph name="a" format="1">
  <advance width="600"/>
  <unicode hex="0061"/>
  <outline>
    <contour>
      <point x="513" y="368" type="line"/>
      <point x="513" y="462"/>
      <point x="433" y="512"/>
      <point x="307" y="512" type="curve"/>
      <point x="212" y="512"/>
      <point x="139" y="484"/>
      <point x="99" y="444" type="curve"/>
      <point x="171" y="374" type="line"/>
      <point x="196" y="402"/>
      <point x="234" y="417"/>
      <point x="299" y="417" type="curve"/>
      <point x="371" y="417"/>
      <point x="401" y="395"/>
      <point x="401" y="342" type="curve"/>
    </contour>
    <contour>
      <point x="414" y="-11"/>
      <point x="470" y="76"/>
      <point x="470" y="76" type="curve"/>
      <point x="420" y="150" type="line"/>
      <point x="411" y="119"/>
      <point x="357" y="83"/>
      <point x="296" y="83" type="curve"/>
      <point x="208" y="83"/>
      <point x="181" y="104"/>
      <point x="181" y="153" type="curve"/>
      <point x="70" y="153" type="line"/>
      <point x="70" y="41"/>
      <point x="137" y="-11"/>
      <point x="279" y="-11" type="curve"/>
    </contour>
    <contour>
      <point x="181" y="153" type="line"/>
      <point x="181" y="208"/>
      <point x="201" y="227"/>
      <point x="333" y="227" type="curve"/>
      <point x="299" y="316" type="line"/>
      <point x="141" y="316"/>
      <point x="70" y="264"/>
      <point x="70" y="153" type="curve"/>
    </contour>
    <contour>
      <point x="573" y="49" type="line"/>
      <point x="464" y="158" type="line"/>
      <point x="393" y="87" type="line"/>
      <point x="501" y="-20" type="line"/>
    </contour>
    <contour>
      <point x="475" y="227" type="line"/>
      <point x="475" y="316" type="line"/>
      <point x="299" y="316" type="line"/>
      <point x="333" y="227" type="line"/>
    </contour>
    <contour>
      <point x="513" y="294" type="line"/>
      <point x="401" y="294" type="line"/>
      <point x="401" y="116" type="line"/>
      <point x="513" y="89" type="line"/>
    </contour>
    <contour>
      <point x="513" y="212" type="line"/>
      <point x="513" y="368" type="line"/>
      <point x="401" y="342" type="line"/>
      <point x="401" y="212" type="line"/>
    </contour>
  </outline>
</glyph>
<glyph name="b" format="1">
  <advance width="600"/>
  <unicode hex="0062"/>
  <outline>
    <contour>
      <point x="170" y="0" type="line"/>
      <point x="194" y="71" type="line"/>
      <point x="194" y="800" type="line"/>
      <point x="82" y="800" type="line"/>
      <point x="82" y="0" type="line"/>
    </contour>
    <contour>
      <point x="186" y="306" type="line"/>
      <point x="199" y="349"/>
      <point x="239" y="415"/>
      <point x="315" y="415" type="curve" smooth="yes"/>
      <point x="400" y="415"/>
      <point x="427" y="367"/>
      <point x="427" y="251" type="curve"/>
      <point x="539" y="251" type="line"/>
      <point x="539" y="434"/>
      <point x="467" y="511"/>
      <point x="337" y="511" type="curve" smooth="yes"/>
      <point x="217" y="511"/>
      <point x="140" y="414"/>
      <point x="140" y="302" type="curve"/>
    </contour>
    <contour>
      <point x="140" y="98"/>
      <point x="207" y="-11"/>
      <point x="327" y="-11" type="curve" smooth="yes"/>
      <point x="457" y="-11"/>
      <point x="539" y="68"/>
      <point x="539" y="251" type="curve"/>
      <point x="427" y="251" type="line"/>
      <point x="427" y="135"/>
      <point x="390" y="85"/>
      <point x="305" y="85" type="curve" smooth="yes"/>
      <point x="229" y="85"/>
      <point x="189" y="153"/>
      <point x="186" y="206" type="curve"/>
      <point x="140" y="210" type="line"/>
    </contour>
  </outline>
</glyph>
<glyph name="c" format="1">
  <advance width="600"/>
  <unicode hex="0063"/>
  <outline>
    <contour>
      <point x="435" y="155" type="line"/>
      <point x="410" y="107"/>
      <point x="377" y="85"/>
      <point x="334" y="85" type="curve" smooth="yes"/>
      <point x="266" y="85"/>
      <point x="213" y="130"/>
      <point x="213" y="251" type="curve" smooth="yes"/>
      <point x="213" y="374"/>
      <point x="266" y="416"/>
      <point x="334" y="416" type="curve" smooth="yes"/>
      <point x="377" y="416"/>
      <point x="412" y="393"/>
      <point x="435" y="337" type="curve"/>
      <point x="537" y="392" type="line"/>
      <point x="489" y="482"/>
      <point x="418" y="512"/>
      <point x="337" y="512" type="curve" smooth="yes"/>
      <point x="207" y="512"/>
      <point x="96" y="444"/>
      <point x="96" y="251" type="curve" smooth="yes"/>
      <point x="96" y="60"/>
      <point x="207" y="-11"/>
      <point x="337" y="-11" type="curve" smooth="yes"/>
      <point x="419" y="-11"/>
      <point x="489" y="20"/>
      <point x="537" y="102" type="curve"/>
    </contour>
  </outline>
</glyph>
<glyph name="e" format="1">
  <advance width="600"/>
  <unicode hex="0065"/>
  <outline>
    <contour>
      <point x="438" y="147" type="line"/>
      <point x="410" y="102"/>
      <point x="369" y="84"/>
      <point x="321" y="85" type="curve" smooth="yes"/>
      <point x="250" y="85"/>
      <point x="202" y="125"/>
      <point x="202" y="248" type="curve" smooth="yes"/>
      <point x="202" y="381"/>
      <point x="255" y="417"/>
      <point x="325" y="417" type="curve" smooth="yes"/>
      <point x="395" y="417"/>
      <point x="428" y="377"/>
      <point x="434" y="304" type="curve"/>
      <point x="547" y="218" type="line"/>
      <point x="557" y="395"/>
      <point x="482" y="512"/>
      <point x="327" y="512" type="curve" smooth="yes"/>
      <point x="199" y="512"/>
      <point x="88" y="436"/>
      <point x="88" y="251" type="curve" smooth="yes"/>
      <point x="88" y="68"/>
      <point x="197" y="-11"/>
      <point x="324" y="-11" type="curve" smooth="yes"/>
      <point x="405" y="-11"/>
      <point x="487" y="22"/>
      <point x="533" y="95" type="curve"/>
    </contour>
    <contour>
      <point x="194" y="218" type="line"/>
      <point x="547" y="218" type="line"/>
      <point x="474" y="304" type="line"/>
      <point x="194" y="304" type="line"/>
    </contour>
  </outline>
</glyph>
<glyph name="f" format="1">
  <advance width="600"/>
  <unicode hex="0066"/>
  <outline>
    <contour>
      <point x="344" y="0" type="line"/>
      <point x="344" y="593" type="line"/>
      <point x="231" y="620" type="line"/>
      <point x="231" y="0" type="line"/>
    </contour>
    <contour>
      <point x="120" y="405" type="line"/>
      <point x="518" y="405" type="line"/>
      <point x="518" y="500" type="line"/>
      <point x="120" y="500" type="line"/>
    </contour>
    <contour>
      <point x="549" y="790" type="line"/>
      <point x="522" y="800"/>
      <point x="493" y="807"/>
      <point x="442" y="807" type="curve"/>
      <point x="320" y="807"/>
      <point x="231" y="744"/>
      <point x="231" y="620" type="curve"/>
      <point x="344" y="593" type="line"/>
      <point x="344" y="679"/>
      <point x="371" y="711"/>
      <point x="449" y="711" type="curve"/>
      <point x="478" y="711"/>
      <point x="499" y="708"/>
      <point x="515" y="702" type="curve"/>
    </contour>
  </outline>
</glyph>
<glyph name="g" format="1">
  <advance width="600"/>
  <unicode hex="0067"/>
  <outline>
    <contour>
      <point x="397" y="149"/>
      <point x="521" y="188"/>
      <point x="521" y="331" type="curve" smooth="yes"/>
      <point x="521" y="473"/>
      <point x="413" y="512"/>
      <point x="301" y="512" type="curve" smooth="yes"/>
      <point x="188" y="512"/>
      <point x="80" y="473"/>
      <point x="80" y="331" type="curve" smooth="yes"/>
      <point x="80" y="188"/>
      <point x="188" y="149"/>
      <point x="301" y="149" type="curve" smooth="yes"/>
    </contour>
    <contour>
      <point x="228" y="242"/>
      <point x="197" y="263"/>
      <point x="197" y="331" type="curve" smooth="yes"/>
      <point x="197" y="398"/>
      <point x="221" y="419"/>
      <point x="301" y="419" type="curve" smooth="yes"/>
      <point x="380" y="419"/>
      <point x="404" y="404"/>
      <point x="404" y="331" type="curve" smooth="yes"/>
      <point x="404" y="263"/>
      <point x="373" y="242"/>
      <point x="301" y="242" type="curve" smooth="yes"/>
    </contour>
    <contour>
      <point x="264" y="-1" type="line"/>
      <point x="274" y="87" type="line"/>
      <point x="257" y="87" type="line" smooth="yes"/>
      <point x="181" y="87"/>
      <point x="212" y="142"/>
      <point x="235" y="170" type="curve"/>
      <point x="182" y="199" type="line"/>
      <point x="157" y="181"/>
      <point x="101" y="154"/>
      <point x="99" y="92" type="curve" smooth="yes"/>
      <point x="96" y="31"/>
      <point x="168" y="-1"/>
      <point x="250" y="-1" type="curve" smooth="yes"/>
    </contour>
    <contour>
      <point x="69" y="-153"/>
      <point x="162" y="-195"/>
      <point x="307" y="-195" type="curve"/>
      <point x="307" y="-108" type="line"/>
      <point x="243" y="-108"/>
      <point x="206" y="-97"/>
      <point x="187" y="-71" type="curve" smooth="yes"/>
      <point x="170" y="-47"/>
      <point x="184" y="-1"/>
      <point x="205" y="17" type="curve"/>
      <point x="143" y="45" type="line"/>
      <point x="118" y="27"/>
      <point x="69" y="-7"/>
      <point x="69" y="-69" type="curve" smooth="yes"/>
    </contour>
    <contour>
      <point x="551" y="40"/>
      <point x="502" y="87"/>
      <point x="405" y="87" type="curve"/>
      <point x="368" y="-1" type="line"/>
      <point x="432" y="-1"/>
      <point x="436" y="-29"/>
      <point x="430" y="-55" type="curve" smooth="yes"/>
      <point x="421" y="-91"/>
      <point x="375" y="-108"/>
      <point x="307" y="-108" type="curve"/>
      <point x="307" y="-195" type="line"/>
      <point x="461" y="-195"/>
      <point x="532" y="-128"/>
      <point x="541" y="-43" type="curve" smooth="yes"/>
    </contour>
    <contour>
      <point x="405" y="87" type="line"/>
      <point x="405" y="87"/>
      <point x="404" y="87"/>
      <point x="404" y="87" type="curve" smooth="yes"/>
      <point x="274" y="87" type="line"/>
      <point x="264" y="-1" type="line"/>
      <point x="368" y="-1" type="line"/>
    </contour>
    <contour>
      <point x="400" y="428" type="line"/>
      <point x="465" y="363" type="line"/>
      <point x="576" y="474" type="line"/>
      <point x="510" y="537" type="line"/>
    </contour>
  </outline>
</glyph>
<glyph name="h" format="1">
  <advance width="600"/>
  <unicode hex="0068"/>
  <outline>
    <contour>
      <point x="181" y="0" type="line"/>
      <point x="181" y="800" type="line"/>
      <point x="69" y="800" type="line"/>
      <point x="69" y="0" type="line"/>
    </contour>
    <contour>
      <point x="176" y="322" type="line"/>
      <point x="186" y="349"/>
      <point x="230" y="415"/>
      <point x="313" y="415" type="curve" smooth="yes"/>
      <point x="395" y="415"/>
      <point x="406" y="358"/>
      <point x="406" y="246" type="curve" smooth="yes"/>
      <point x="406" y="0" type="line"/>
      <point x="518" y="0" type="line"/>
      <point x="518" y="288" type="line" smooth="yes"/>
      <point x="518" y="451"/>
      <point x="457" y="511"/>
      <point x="341" y="511" type="curve" smooth="yes"/>
      <point x="210" y="511"/>
      <point x="126" y="427"/>
      <point x="126" y="315" type="curve"/>
    </contour>
  </outline>
</glyph>
<glyph name="i" format="1">
  <advance width="600"/>
  <unicode hex="0069"/>
  <outline>
    <contour>
      <point x="86" y="405" type="line"/>
      <point x="258" y="405" type="line"/>
      <point x="258" y="500" type="line"/>
      <point x="86" y="500" type="line"/>
    </contour>
    <contour>
      <point x="365" y="56" type="line"/>
      <point x="365" y="500" type="line"/>
      <point x="253" y="500" type="line"/>
      <point x="253" y="31" type="line"/>
    </contour>
    <contour>
      <point x="253" y="0" type="line"/>
      <point x="501" y="0" type="line"/>
      <point x="501" y="95" type="line"/>
      <point x="253" y="95" type="line"/>
    </contour>
    <contour>
      <point x="357" y="610"/>
      <point x="395" y="648"/>
      <point x="395" y="698" type="curve" smooth="yes"/>
      <point x="395" y="748"/>
      <point x="357" y="786"/>
      <point x="307" y="786" type="curve" smooth="yes"/>
      <point x="257" y="786"/>
      <point x="218" y="748"/>
      <point x="218" y="698" type="curve" smooth="yes"/>
      <point x="218" y="648"/>
      <point x="257" y="610"/>
      <point x="307" y="610" type="curve" smooth="yes"/>
    </contour>
  </outline>
</glyph>
<glyph name="j" format="1">
  <advance width="600"/>
  <unicode hex="006A"/>
  <outline>
    <contour>
      <point x="327" y="500" type="line"/>
      <point x="327" y="11" type="line"/>
      <point x="440" y="-12" type="line"/>
      <point x="440" y="500" type="line"/>
    </contour>
    <contour>
      <point x="138" y="-181" type="line"/>
      <point x="162" y="-187"/>
      <point x="191" y="-192"/>
      <point x="229" y="-192" type="curve"/>
      <point x="358" y="-192"/>
      <point x="440" y="-130"/>
      <point x="440" y="-12" type="curve"/>
      <point x="327" y="11" type="line"/>
      <point x="327" y="-65"/>
      <point x="300" y="-96"/>
      <point x="222" y="-96" type="curve"/>
      <point x="201" y="-96"/>
      <point x="179" y="-93"/>
      <point x="163" y="-87" type="curve"/>
    </contour>
    <contour>
      <point x="159" y="405" type="line"/>
      <point x="409" y="405" type="line"/>
      <point x="409" y="500" type="line"/>
      <point x="159" y="500" type="line"/>
    </contour>
    <contour>
      <point x="428" y="610"/>
      <point x="467" y="648"/>
      <point x="467" y="698" type="curve" smooth="yes"/>
      <point x="467" y="748"/>
      <point x="428" y="786"/>
      <point x="379" y="786" type="curve" smooth="yes"/>
      <point x="329" y="786"/>
      <point x="290" y="748"/>
      <point x="290" y="698" type="curve" smooth="yes"/>
      <point x="290" y="648"/>
      <point x="329" y="610"/>
      <point x="379" y="610" type="curve" smooth="yes"/>
    </contour>
  </outline>
</glyph>
<glyph name="k" format="1">
  <advance width="600"/>
  <unicode hex="006B"/>
  <outline>
    <contour>
      <point x="208" y="0" type="line"/>
      <point x="208" y="800" type="line"/>
      <point x="96" y="800" type="line"/>
      <point x="96" y="0" type="line"/>
    </contour>
    <contour>
      <point x="174" y="212" type="line"/>
      <point x="296" y="212" type="line"/>
      <point x="296" y="306" type="line"/>
      <point x="174" y="306" type="line"/>
    </contour>
    <contour>
      <point x="209" y="279" type="line"/>
      <point x="312" y="246" type="line"/>
      <point x="547" y="500" type="line"/>
      <point x="412" y="500" type="line"/>
    </contour>
    <contour>
      <point x="564" y="0" type="line"/>
      <point x="312" y="279" type="line"/>
      <point x="182" y="279" type="line"/>
      <point x="429" y="0" type="line"/>
    </contour>
  </outline>
</glyph>
<glyph name="l" format="1">
  <advance width="600"/>
  <unicode hex="006C"/>
  <outline>
    <contour>
      <point x="343" y="66" type="line"/>
      <point x="343" y="800" type="line"/>
      <point x="231" y="800" type="line"/>
      <point x="231" y="45" type="line"/>
    </contour>
    <contour>
      <point x="473" y="0" type="line"/>
      <point x="473" y="95" type="line"/>
      <point x="231" y="95" type="line"/>
      <point x="231" y="0" type="line"/>
    </contour>
    <contour>
      <point x="236" y="705" type="line"/>
      <point x="236" y="800" type="line"/>
      <point x="94" y="800" type="line"/>
      <point x="94" y="705" type="line"/>
    </contour>
  </outline>
</glyph>
<glyph name="m" format="1">
  <advance width="600"/>
  <unicode hex="006D"/>
  <outline>
    <contour>
      <point x="585" y="0" type="line"/>
      <point x="585" y="322" type="line" smooth="yes"/>
      <point x="585" y="485"/>
      <point x="533" y="511"/>
      <point x="467" y="511" type="curve" smooth="yes"/>
      <point x="385" y="511"/>
      <point x="313" y="424"/>
      <point x="313" y="312" type="curve"/>
      <point x="356" y="346" type="line"/>
      <point x="363" y="381"/>
      <point x="404" y="415"/>
      <point x="433" y="415" type="curve" smooth="yes"/>
      <point x="469" y="415"/>
      <point x="478" y="392"/>
      <point x="478" y="292" type="curve" smooth="yes"/>
      <point x="478" y="0" type="line"/>
    </contour>
    <contour>
      <point x="142" y="0" type="line"/>
      <point x="142" y="402" type="line"/>
      <point x="142" y="402"/>
      <point x="114" y="500"/>
      <point x="114" y="500" type="curve"/>
      <point x="35" y="500" type="line"/>
      <point x="35" y="500"/>
      <point x="35" y="436"/>
      <point x="35" y="345" type="curve"/>
      <point x="35" y="0" type="line"/>
    </contour>
    <contour>
      <point x="360" y="0" type="line"/>
      <point x="360" y="357" type="line" smooth="yes"/>
      <point x="360" y="357"/>
      <point x="354" y="375"/>
      <point x="354" y="392" type="curve" smooth="yes"/>
      <point x="354" y="475"/>
      <point x="302" y="511"/>
      <point x="242" y="511" type="curve" smooth="yes"/>
      <point x="159" y="511"/>
      <point x="95" y="424"/>
      <point x="95" y="312" type="curve"/>
      <point x="139" y="346" type="line"/>
      <point x="146" y="381"/>
      <point x="185" y="415"/>
      <point x="214" y="415" type="curve" smooth="yes"/>
      <point x="249" y="415"/>
      <point x="260" y="392"/>
      <point x="260" y="292" type="curve" smooth="yes"/>
      <point x="260" y="0" type="line"/>
    </contour>
  </outline>
</glyph>
<glyph name="n" format="1">
  <advance width="600"/>
  <unicode hex="006E"/>
  <outline>
    <contour>
      <point x="202" y="326" type="line"/>
      <point x="215" y="359"/>
      <point x="255" y="415"/>
      <point x="330" y="415" type="curve" smooth="yes"/>
      <point x="411" y="415"/>
      <point x="421" y="365"/>
      <point x="421" y="262" type="curve" smooth="yes"/>
      <point x="421" y="0" type="line"/>
      <point x="533" y="0" type="line"/>
      <point x="533" y="282" type="line" smooth="yes"/>
      <point x="533" y="445"/>
      <point x="465" y="511"/>
      <point x="350" y="511" type="curve" smooth="yes"/>
      <point x="227" y="511"/>
      <point x="153" y="424"/>
      <point x="153" y="312" type="curve"/>
    </contour>
    <contour>
      <point x="93" y="500" type="line"/>
      <point x="93" y="500"/>
      <point x="93" y="436"/>
      <point x="93" y="345" type="curve"/>
      <point x="93" y="0" type="line"/>
      <point x="205" y="0" type="line"/>
      <point x="205" y="402" type="line"/>
      <point x="205" y="402"/>
      <point x="176" y="500"/>
      <point x="176" y="500" type="curve"/>
    </contour>
  </outline>
</glyph>
<glyph name="o" format="1">
  <advance width="600"/>
  <unicode hex="006F"/>
  <outline>
    <contour>
      <point x="422" y="-11"/>
      <point x="537" y="58"/>
      <point x="537" y="251" type="curve" smooth="yes"/>
      <point x="537" y="443"/>
      <point x="422" y="512"/>
      <point x="303" y="512" type="curve" smooth="yes"/>
      <point x="183" y="512"/>
      <point x="68" y="443"/>
      <point x="68" y="251" type="curve" smooth="yes"/>
      <point x="68" y="58"/>
      <point x="183" y="-11"/>
      <point x="303" y="-11" type="curve" smooth="yes"/>
    </contour>
    <contour>
      <point x="250" y="85"/>
      <point x="186" y="120"/>
      <point x="186" y="251" type="curve" smooth="yes"/>
      <point x="186" y="381"/>
      <point x="250" y="416"/>
      <point x="303" y="416" type="curve" smooth="yes"/>
      <point x="355" y="416"/>
      <point x="419" y="381"/>
      <point x="419" y="251" type="curve" smooth="yes"/>
      <point x="419" y="120"/>
      <point x="355" y="85"/>
      <point x="303" y="85" type="curve" smooth="yes"/>
    </contour>
  </outline>
</glyph>
<glyph name="p" format="1">
  <advance width="600"/>
  <unicode hex="0070"/>
  <outline>
    <contour>
      <point x="82" y="-200" type="line"/>
      <point x="194" y="-200" type="line"/>
      <point x="194" y="429" type="line"/>
      <point x="164" y="500" type="line"/>
      <point x="82" y="500" type="line"/>
    </contour>
    <contour>
      <point x="143" y="96"/>
      <point x="200" y="-11"/>
      <point x="330" y="-11" type="curve" smooth="yes"/>
      <point x="459" y="-11"/>
      <point x="538" y="66"/>
      <point x="538" y="249" type="curve"/>
      <point x="426" y="249" type="line"/>
      <point x="426" y="126"/>
      <point x="386" y="85"/>
      <point x="304" y="85" type="curve" smooth="yes"/>
      <point x="228" y="85"/>
      <point x="192" y="138"/>
      <point x="188" y="181" type="curve"/>
      <point x="143" y="208" type="line"/>
    </contour>
    <contour>
      <point x="188" y="307" type="line"/>
      <point x="191" y="350"/>
      <point x="238" y="416"/>
      <point x="314" y="416" type="curve" smooth="yes"/>
      <point x="396" y="416"/>
      <point x="426" y="372"/>
      <point x="426" y="249" type="curve"/>
      <point x="538" y="249" type="line"/>
      <point x="538" y="432"/>
      <point x="469" y="512"/>
      <point x="340" y="512" type="curve" smooth="yes"/>
      <point x="220" y="512"/>
      <point x="143" y="394"/>
      <point x="143" y="290" type="curve"/>
    </contour>
  </outline>
</glyph>
<glyph name="r" format="1">
  <advance width="600"/>
  <unicode hex="0072"/>
  <outline>
    <contour>
      <point x="334" y="332" type="line"/>
      <point x="347" y="365"/>
      <point x="393" y="413"/>
      <point x="469" y="413" type="curve" smooth="yes"/>
      <point x="512" y="413"/>
      <point x="537" y="402"/>
      <point x="542" y="397" type="curve"/>
      <point x="575" y="493" type="line"/>
      <point x="563" y="499"/>
      <point x="536" y="512"/>
      <point x="489" y="512" type="curve" smooth="yes"/>
      <point x="362" y="512"/>
      <point x="285" y="424"/>
      <point x="285" y="312" type="curve"/>
    </contour>
    <contour>
      <point x="496" y="0" type="line"/>
      <point x="496" y="95" type="line"/>
      <point x="103" y="95" type="line"/>
      <point x="103" y="0" type="line"/>
    </contour>
    <contour>
      <point x="338" y="0" type="line"/>
      <point x="338" y="402" type="line"/>
      <point x="308" y="500" type="line"/>
      <point x="225" y="500" type="line"/>
      <point x="225" y="345" type="line"/>
      <point x="225" y="0" type="line"/>
    </contour>
    <contour>
      <point x="262" y="405" type="line"/>
      <point x="262" y="500" type="line"/>
      <point x="103" y="500" type="line"/>
      <point x="103" y="405" type="line"/>
    </contour>
  </outline>
</glyph>
<glyph name="s" format="1">
  <advance width="600"/>
  <unicode hex="0073"/>
  <outline>
    <contour>
      <point x="412" y="-11"/>
      <point x="527" y="34"/>
      <point x="529" y="142" type="curve" smooth="yes"/>
      <point x="530" y="265"/>
      <point x="361" y="292"/>
      <point x="311" y="307" type="curve" smooth="yes"/>
      <point x="278" y="316"/>
      <point x="212" y="332"/>
      <point x="212" y="368" type="curve" smooth="yes"/>
      <point x="212" y="406"/>
      <point x="270" y="420"/>
      <point x="313" y="419" type="curve" smooth="yes"/>
      <point x="353" y="419"/>
      <point x="404" y="401"/>
      <point x="427" y="364" type="curve"/>
      <point x="513" y="420" type="line"/>
      <point x="470" y="486"/>
      <point x="386" y="512"/>
      <point x="311" y="512" type="curve" smooth="yes"/>
      <point x="216" y="512"/>
      <point x="97" y="470"/>
      <point x="99" y="372" type="curve" smooth="yes"/>
      <point x="101" y="263"/>
      <point x="237" y="225"/>
      <point x="298" y="211" type="curve" smooth="yes"/>
      <point x="338" y="201"/>
      <point x="415" y="186"/>
      <point x="415" y="140" type="curve" smooth="yes"/>
      <point x="415" y="99"/>
      <point x="362" y="83"/>
      <point x="306" y="83" type="curve" smooth="yes"/>
      <point x="251" y="83"/>
      <point x="184" y="105"/>
      <point x="163" y="141" type="curve"/>
      <point x="71" y="81" type="line"/>
      <point x="115" y="16"/>
      <point x="214" y="-11"/>
      <point x="302" y="-11" type="curve" smooth="yes"/>
    </contour>
  </outline>
</glyph>
<glyph name="t" format="1">
  <advance width="600"/>
  <unicode hex="0074"/>
  <outline>
    <contour>
      <point x="317" y="155" type="line"/>
      <point x="317" y="680" type="line"/>
      <point x="205" y="680" type="line"/>
      <point x="205" y="122" type="line"/>
    </contour>
    <contour>
      <point x="417" y="-11"/>
      <point x="454" y="-1"/>
      <point x="462" y="0" type="curve"/>
      <point x="462" y="92" type="line"/>
      <point x="453" y="90"/>
      <point x="405" y="79"/>
      <point x="371" y="79" type="curve"/>
      <point x="341" y="79"/>
      <point x="317" y="92"/>
      <point x="317" y="155" type="curve"/>
      <point x="205" y="122" type="line"/>
      <point x="205" y="16"/>
      <point x="275" y="-11"/>
      <point x="350" y="-11" type="curve"/>
    </contour>
    <contour>
      <point x="493" y="405" type="line"/>
      <point x="493" y="500" type="line"/>
      <point x="65" y="500" type="line"/>
      <point x="65" y="405" type="line"/>
    </contour>
  </outline>
</glyph>
<glyph name="u" format="1">
  <advance width="600"/>
  <unicode hex="0075"/>
  <outline>
    <contour>
      <point x="385" y="-10"/>
      <point x="456" y="77"/>
      <point x="456" y="189" type="curve"/>
      <point x="413" y="175" type="line"/>
      <point x="400" y="142"/>
      <point x="360" y="86"/>
      <point x="282" y="86" type="curve" smooth="yes"/>
      <point x="202" y="86"/>
      <point x="189" y="140"/>
      <point x="189" y="249" type="curve" smooth="yes"/>
      <point x="189" y="501" type="line"/>
      <point x="77" y="501" type="line"/>
      <point x="77" y="219" type="line" smooth="yes"/>
      <point x="77" y="56"/>
      <point x="139" y="-10"/>
      <point x="258" y="-10" type="curve" smooth="yes"/>
    </contour>
    <contour>
      <point x="517" y="0" type="line" smooth="yes"/>
      <point x="517" y="0"/>
      <point x="516" y="101"/>
      <point x="516" y="101" type="curve"/>
      <point x="516" y="501" type="line"/>
      <point x="403" y="501" type="line"/>
      <point x="403" y="99" type="line"/>
      <point x="403" y="99"/>
      <point x="423" y="0"/>
      <point x="423" y="0" type="curve"/>
    </contour>
  </outline>
</glyph>
<glyph name="v" format="1">
  <advance width="600"/>
  <unicode hex="0076"/>
  <outline>
    <contour>
      <point x="88" y="500" type="line"/>
      <point x="210" y="0" type="line"/>
      <point x="313" y="0" type="line"/>
      <point x="205" y="500" type="line"/>
    </contour>
    <contour>
      <point x="399" y="500" type="line"/>
      <point x="291" y="0" type="line"/>
      <point x="394" y="0" type="line"/>
      <point x="516" y="500" type="line"/>
    </contour>
    <contour>
      <point x="372" y="0" type="line"/>
      <point x="372" y="95" type="line"/>
      <point x="232" y="95" type="line"/>
      <point x="232" y="0" type="line"/>
    </contour>
  </outline>
</glyph>
<glyph name="w" format="1">
  <advance width="600"/>
  <unicode hex="0077"/>
  <outline>
    <contour>
      <point x="97" y="0" type="line"/>
      <point x="190" y="0" type="line"/>
      <point x="138" y="500" type="line"/>
      <point x="31" y="500" type="line"/>
    </contour>
    <contour>
      <point x="407" y="0" type="line"/>
      <point x="499" y="0" type="line"/>
      <point x="566" y="500" type="line"/>
      <point x="458" y="500" type="line"/>
    </contour>
    <contour>
      <point x="346" y="500" type="line"/>
      <point x="251" y="500" type="line"/>
      <point x="147" y="0" type="line"/>
      <point x="225" y="0" type="line"/>
    </contour>
    <contour>
      <point x="450" y="0" type="line"/>
      <point x="346" y="500" type="line"/>
      <point x="251" y="500" type="line"/>
      <point x="372" y="0" type="line"/>
    </contour>
  </outline>
</glyph>
<glyph name="x" format="1">
  <advance width="600"/>
  <unicode hex="0078"/>
  <outline>
    <contour>
      <point x="293" y="273" type="line"/>
      <point x="386" y="240" type="line"/>
      <point x="551" y="500" type="line"/>
      <point x="428" y="500" type="line"/>
    </contour>
    <contour>
      <point x="274" y="206" type="line"/>
      <point x="366" y="206" type="line"/>
      <point x="366" y="300" type="line"/>
      <point x="274" y="300" type="line"/>
    </contour>
    <contour>
      <point x="551" y="0" type="line"/>
      <point x="381" y="273" type="line"/>
      <point x="269" y="273" type="line"/>
      <point x="428" y="0" type="line"/>
    </contour>
    <contour>
      <point x="224" y="300" type="line"/>
      <point x="224" y="206" type="line"/>
      <point x="316" y="206" type="line"/>
      <point x="316" y="300" type="line"/>
    </contour>
    <contour>
      <point x="39" y="500" type="line"/>
      <point x="204" y="240" type="line"/>
      <point x="297" y="273" type="line"/>
      <point x="162" y="500" type="line"/>
    </contour>
    <contour>
      <point x="321" y="273" type="line"/>
      <point x="209" y="273" type="line"/>
      <point x="39" y="0" type="line"/>
      <point x="162" y="0" type="line"/>
    </contour>
  </outline>
</glyph>
<glyph name="y" format="1">
  <advance width="600"/>
  <unicode hex="0079"/>
  <outline>
    <contour>
      <point x="92" y="500" type="line"/>
      <point x="274" y="0" type="line"/>
      <point x="351" y="50" type="line"/>
      <point x="219" y="500" type="line"/>
    </contour>
    <contour>
      <point x="426" y="500" type="line"/>
      <point x="294" y="50" type="line"/>
      <point x="381" y="0" type="line"/>
      <point x="553" y="500" type="line"/>
    </contour>
    <contour>
      <point x="99" y="-180" type="line"/>
      <point x="106" y="-183"/>
      <point x="138" y="-192"/>
      <point x="171" y="-192" type="curve"/>
      <point x="272" y="-192"/>
      <point x="337" y="-118"/>
      <point x="381" y="0" type="curve"/>
      <point x="325" y="50" type="line"/>
      <point x="276" y="11" type="line"/>
      <point x="241" y="-70"/>
      <point x="214" y="-96"/>
      <point x="162" y="-96" type="curve"/>
      <point x="149" y="-96"/>
      <point x="136" y="-91"/>
      <point x="134" y="-91" type="curve"/>
    </contour>
  </outline>
</glyph>
<glyph name="z" format="1">
  <advance width="600"/>
  <unicode hex="007A"/>
  <outline>
    <contour>
      <point x="238" y="95" type="line"/>
      <point x="497" y="405" type="line"/>
      <point x="371" y="405" type="line"/>
      <point x="110" y="95" type="line"/>
    </contour>
    <contour>
      <point x="118" y="405" type="line"/>
      <point x="497" y="405" type="line"/>
      <point x="497" y="500" type="line"/>
      <point x="118" y="500" type="line"/>
    </contour>
    <contour>
      <point x="110" y="0" type="line"/>
      <point x="509" y="0" type="line"/>
      <point x="509" y="95" type="line"/>
      <point x="110" y="95" type="line"/>
    </contour>
  </outline>
</glyph>
<glyph name="braceleft" format="1">
  <advance width="600"/>
  <unicode hex="007B"/>
  <outline>
    <contour>
      <point x="203" y="315" type="line" smooth="yes"/>
      <point x="269" y="315"/>
      <point x="354" y="318"/>
      <point x="354" y="436" type="curve" smooth="yes"/>
      <point x="354" y="596" type="line" smooth="yes"/>
      <point x="354" y="682"/>
      <point x="382" y="714"/>
      <point x="459" y="714" type="curve" smooth="yes"/>
      <point x="473" y="714" type="line"/>
      <point x="473" y="810" type="line"/>
      <point x="446" y="810" type="line" smooth="yes"/>
      <point x="330" y="810"/>
      <point x="245" y="746"/>
      <point x="245" y="628" type="curve" smooth="yes"/>
      <point x="245" y="476" type="line" smooth="yes"/>
      <point x="245" y="396"/>
      <point x="227" y="364"/>
      <point x="180" y="364" type="curve" smooth="yes"/>
      <point x="170" y="364" type="line"/>
      <point x="170" y="315" type="line"/>
    </contour>
    <contour>
      <point x="170" y="269" type="line"/>
      <point x="180" y="269" type="line" smooth="yes"/>
      <point x="227" y="269"/>
      <point x="245" y="237"/>
      <point x="245" y="157" type="curve" smooth="yes"/>
      <point x="245" y="5" type="line" smooth="yes"/>
      <point x="245" y="-113"/>
      <point x="330" y="-177"/>
      <point x="446" y="-177" type="curve" smooth="yes"/>
      <point x="473" y="-177" type="line"/>
      <point x="473" y="-81" type="line"/>
      <point x="459" y="-81" type="line" smooth="yes"/>
      <point x="382" y="-81"/>
      <point x="354" y="-49"/>
      <point x="354" y="37" type="curve" smooth="yes"/>
      <point x="354" y="197" type="line" smooth="yes"/>
      <point x="354" y="315"/>
      <point x="269" y="318"/>
      <point x="203" y="318" type="curve" smooth="yes"/>
      <point x="170" y="318" type="line"/>
    </contour>
  </outline>
</glyph>
<glyph name="bar" format="1">
  <advance width="600"/>
  <unicode hex="007C"/>
  <outline>
    <contour>
      <point x="249" y="-130" type="line"/>
      <point x="346" y="-130" type="line"/>
      <point x="346" y="800" type="line"/>
      <point x="249" y="800" type="line"/>
    </contour>
  </outline>
</glyph>
<glyph name="cent" format="1">
  <advance width="600"/>
  <unicode hex="00A2"/>
  <outline>
    <contour>
      <point x="395" y="85"/>
      <point x="469" y="120"/>
      <point x="517" y="202" type="curve"/>
      <point x="418" y="254" type="line"/>
      <point x="391" y="206"/>
      <point x="352" y="181"/>
      <point x="304" y="181" type="curve" smooth="yes"/>
      <point x="224" y="181"/>
      <point x="170" y="226"/>
      <point x="170" y="347" type="curve" smooth="yes"/>
      <point x="170" y="470"/>
      <point x="224" y="512"/>
      <point x="304" y="512" type="curve" smooth="yes"/>
      <point x="351" y="512"/>
      <point x="389" y="488"/>
      <point x="416" y="432" type="curve"/>
      <point x="515" y="484" type="line"/>
      <point x="467" y="574"/>
      <point x="394" y="608"/>
      <point x="307" y="608" type="curve" smooth="yes"/>
      <point x="160" y="608"/>
      <point x="52" y="540"/>
      <point x="52" y="347" type="curve" smooth="yes"/>
      <point x="52" y="156"/>
      <point x="160" y="85"/>
      <point x="307" y="85" type="curve" smooth="yes"/>
    </contour>
    <contour>
      <point x="340" y="0" type="line"/>
      <point x="340" y="120" type="line"/>
      <point x="245" y="120" type="line"/>
      <point x="245" y="0" type="line"/>
    </contour>
    <contour>
      <point x="340" y="580" type="line"/>
      <point x="340" y="700" type="line"/>
      <point x="245" y="700" type="line"/>
      <point x="245" y="580" type="line"/>
    </contour>
  </outline>
</glyph>
<glyph name="sterling" format="1">
  <advance width="600"/>
  <unicode hex="00A3"/>
  <outline>
    <contour>
      <point x="232" y="101"/>
      <point x="290" y="186"/>
      <point x="275" y="290" type="curve" smooth="yes"/>
      <point x="266" y="352"/>
      <point x="232" y="440"/>
      <point x="232" y="505" type="curve" smooth="yes"/>
      <point x="232" y="577"/>
      <point x="281" y="610"/>
      <point x="345" y="610" type="curve" smooth="yes"/>
      <point x="401" y="610"/>
      <point x="432" y="592"/>
      <point x="452" y="551" type="curve"/>
      <point x="537" y="602" type="line"/>
      <point x="510" y="663"/>
      <point x="446" y="706"/>
      <point x="345" y="706" type="curve" smooth="yes"/>
      <point x="213" y="706"/>
      <point x="113" y="626"/>
      <point x="113" y="505" type="curve" smooth="yes"/>
      <point x="113" y="426"/>
      <point x="152" y="350"/>
      <point x="165" y="289" type="curve" smooth="yes"/>
      <point x="183" y="203"/>
      <point x="128" y="109"/>
      <point x="80" y="71" type="curve"/>
      <point x="165" y="62" type="line"/>
    </contour>
    <contour>
      <point x="124" y="-12"/>
      <point x="202" y="13"/>
      <point x="261" y="12" type="curve" smooth="yes"/>
      <point x="315" y="11"/>
      <point x="357" y="-10"/>
      <point x="423" y="-13" type="curve" smooth="yes"/>
      <point x="491" y="-16"/>
      <point x="531" y="1"/>
      <point x="531" y="1" type="curve"/>
      <point x="503" y="96" type="line"/>
      <point x="503" y="96"/>
      <point x="480" y="75"/>
      <point x="423" y="78" type="curve" smooth="yes"/>
      <point x="367" y="81"/>
      <point x="352" y="96"/>
      <point x="287" y="98" type="curve" smooth="yes"/>
      <point x="229" y="100"/>
      <point x="186" y="77"/>
      <point x="171" y="66" type="curve"/>
      <point x="171" y="66"/>
      <point x="83" y="71"/>
      <point x="80" y="71" type="curve"/>
      <point x="113" y="-15" type="line"/>
    </contour>
    <contour>
      <point x="448" y="302" type="line"/>
      <point x="448" y="394" type="line"/>
      <point x="50" y="394" type="line"/>
      <point x="50" y="302" type="line"/>
    </contour>
  </outline>
</glyph>
<glyph name="currency" format="1">
  <advance width="600"/>
  <unicode hex="00A4"/>
  <outline>
    <contour>
      <point x="414" y="169"/>
      <point x="512" y="232"/>
      <point x="512" y="370" type="curve" smooth="yes"/>
      <point x="512" y="508"/>
      <point x="414" y="570"/>
      <point x="303" y="570" type="curve" smooth="yes"/>
      <point x="191" y="570"/>
      <point x="93" y="508"/>
      <point x="93" y="370" type="curve" smooth="yes"/>
      <point x="93" y="232"/>
      <point x="191" y="169"/>
      <point x="303" y="169" type="curve" smooth="yes"/>
    </contour>
    <contour>
      <point x="194" y="200" type="line"/>
      <point x="134" y="260" type="line"/>
      <point x="49" y="176" type="line"/>
      <point x="109" y="115" type="line"/>
    </contour>
    <contour>
      <point x="246" y="257"/>
      <point x="198" y="295"/>
      <point x="198" y="370" type="curve" smooth="yes"/>
      <point x="198" y="444"/>
      <point x="246" y="482"/>
      <point x="303" y="482" type="curve" smooth="yes"/>
      <point x="359" y="482"/>
      <point x="407" y="444"/>
      <point x="407" y="370" type="curve" smooth="yes"/>
      <point x="407" y="295"/>
      <point x="359" y="257"/>
      <point x="303" y="257" type="curve" smooth="yes"/>
    </contour>
    <contour>
      <point x="556" y="178" type="line"/>
      <point x="471" y="262" type="line"/>
      <point x="411" y="202" type="line"/>
      <point x="496" y="117" type="line"/>
    </contour>
    <contour>
      <point x="194" y="540" type="line"/>
      <point x="109" y="625" type="line"/>
      <point x="49" y="564" type="line"/>
      <point x="134" y="480" type="line"/>
    </contour>
    <contour>
      <point x="556" y="562" type="line"/>
      <point x="496" y="623" type="line"/>
      <point x="411" y="538" type="line"/>
      <point x="471" y="478" type="line"/>
    </contour>
  </outline>
</glyph>
<glyph name="yen" format="1">
  <advance width="600"/>
  <unicode hex="00A5"/>
  <outline>
    <contour>
      <point x="300" y="416" type="line"/>
      <point x="357" y="297" type="line"/>
      <point x="525" y="700" type="line"/>
      <point x="402" y="700" type="line"/>
    </contour>
    <contour>
      <point x="75" y="700" type="line"/>
      <point x="246" y="292" type="line"/>
      <point x="300" y="416" type="line"/>
      <point x="198" y="700" type="line"/>
    </contour>
    <contour>
      <point x="357" y="0" type="line"/>
      <point x="357" y="416" type="line"/>
      <point x="244" y="416" type="line"/>
      <point x="244" y="0" type="line"/>
    </contour>
    <contour>
      <point x="110" y="265" type="line"/>
      <point x="491" y="265" type="line"/>
      <point x="491" y="357" type="line"/>
      <point x="110" y="357" type="line"/>
    </contour>
    <contour>
      <point x="110" y="121" type="line"/>
      <point x="491" y="121" type="line"/>
      <point x="491" y="213" type="line"/>
      <point x="110" y="213" type="line"/>
    </contour>
  </outline>
</glyph>
<glyph name="brokenbar" format="1">
  <advance width="600"/>
  <unicode hex="00A6"/>
  <outline>
    <contour>
      <point x="249" y="213" type="line"/>
      <point x="249" y="-130" type="line"/>
      <point x="346" y="-130" type="line"/>
      <point x="346" y="213" type="line"/>
    </contour>
    <contour>
      <point x="346" y="453" type="line"/>
      <point x="346" y="800" type="line"/>
      <point x="249" y="800" type="line"/>
      <point x="249" y="453" type="line"/>
    </contour>
  </outline>
</glyph>
<glyph name="section" format="1">
  <advance width="600"/>
  <unicode hex="00A7"/>
  <outline>
    <contour>
      <point x="286" y="456" type="line"/>
      <point x="203" y="444"/>
      <point x="86" y="403"/>
      <point x="86" y="308" type="curve" smooth="yes"/>
      <point x="86" y="187"/>
      <point x="224" y="157"/>
      <point x="288" y="139" type="curve" smooth="yes"/>
      <point x="347" y="122"/>
      <point x="416" y="108"/>
      <point x="416" y="55" type="curve" smooth="yes"/>
      <point x="416" y="4"/>
      <point x="364" y="-20"/>
      <point x="291" y="-20" type="curve" smooth="yes"/>
      <point x="214" y="-20"/>
      <point x="167" y="12"/>
      <point x="149" y="55" type="curve"/>
      <point x="57" y="8" type="line"/>
      <point x="98" y="-74"/>
      <point x="186" y="-109"/>
      <point x="291" y="-109" type="curve" smooth="yes"/>
      <point x="402" y="-109"/>
      <point x="525" y="-67"/>
      <point x="525" y="54" type="curve" smooth="yes"/>
      <point x="525" y="186"/>
      <point x="357" y="213"/>
      <point x="300" y="229" type="curve" smooth="yes"/>
      <point x="253" y="242"/>
      <point x="197" y="261"/>
      <point x="197" y="311" type="curve" smooth="yes"/>
      <point x="197" y="367"/>
      <point x="268" y="396"/>
      <point x="320" y="396" type="curve" smooth="yes"/>
      <point x="329" y="396"/>
      <point x="337" y="395"/>
      <point x="346" y="394" type="curve"/>
    </contour>
    <contour>
      <point x="381" y="134" type="line"/>
      <point x="459" y="153"/>
      <point x="525" y="203"/>
      <point x="525" y="291" type="curve" smooth="yes"/>
      <point x="525" y="426"/>
      <point x="354" y="458"/>
      <point x="297" y="474" type="curve" smooth="yes"/>
      <point x="250" y="487"/>
      <point x="202" y="503"/>
      <point x="202" y="552" type="curve" smooth="yes"/>
      <point x="202" y="601"/>
      <point x="267" y="617"/>
      <point x="310" y="617" type="curve" smooth="yes"/>
      <point x="366" y="617"/>
      <point x="409" y="594"/>
      <point x="431" y="544" type="curve"/>
      <point x="522" y="592" type="line"/>
      <point x="481" y="675"/>
      <point x="398" y="706"/>
      <point x="310" y="706" type="curve" smooth="yes"/>
      <point x="222" y="706"/>
      <point x="96" y="670"/>
      <point x="96" y="555" type="curve" smooth="yes"/>
      <point x="96" y="431"/>
      <point x="227" y="400"/>
      <point x="291" y="382" type="curve" smooth="yes"/>
      <point x="350" y="365"/>
      <point x="416" y="350"/>
      <point x="416" y="288" type="curve" smooth="yes"/>
      <point x="416" y="237"/>
      <point x="369" y="189"/>
      <point x="308" y="182" type="curve"/>
    </contour>
  </outline>
</glyph>
<glyph name="dieresis" format="1">
  <advance width="600"/>
  <unicode hex="00A8"/>
  <outline>
    <contour>
      <point x="235" y="631"/>
      <point x="265" y="661"/>
      <point x="265" y="700" type="curve" smooth="yes"/>
      <point x="265" y="740"/>
      <point x="235" y="771"/>
      <point x="196" y="771" type="curve" smooth="yes"/>
      <point x="157" y="771"/>
      <point x="126" y="740"/>
      <point x="126" y="700" type="curve" smooth="yes"/>
      <point x="126" y="661"/>
      <point x="157" y="631"/>
      <point x="196" y="631" type="curve" smooth="yes"/>
    </contour>
    <contour>
      <point x="444" y="631"/>
      <point x="475" y="661"/>
      <point x="475" y="700" type="curve" smooth="yes"/>
      <point x="475" y="740"/>
      <point x="444" y="771"/>
      <point x="405" y="771" type="curve" smooth="yes"/>
      <point x="366" y="771"/>
      <point x="336" y="740"/>
      <point x="336" y="700" type="curve" smooth="yes"/>
      <point x="336" y="661"/>
      <point x="366" y="631"/>
      <point x="405" y="631" type="curve" smooth="yes"/>
    </contour>
  </outline>
</glyph>
<glyph name="copyright" format="1">
  <advance width="600"/>
  <unicode hex="00A9"/>
  <outline>
    <contour>
      <point x="433" y="47"/>
      <point x="564" y="118"/>
      <point x="564" y="349" type="curve" smooth="yes"/>
      <point x="564" y="579"/>
      <point x="433" y="650"/>
      <point x="297" y="650" type="curve" smooth="yes"/>
      <point x="160" y="650"/>
      <point x="29" y="579"/>
      <point x="29" y="349" type="curve" smooth="yes"/>
      <point x="29" y="118"/>
      <point x="160" y="47"/>
      <point x="297" y="47" type="curve" smooth="yes"/>
    </contour>
    <contour>
      <point x="186" y="117"/>
      <point x="101" y="168"/>
      <point x="101" y="349" type="curve" smooth="yes"/>
      <point x="101" y="529"/>
      <point x="186" y="580"/>
      <point x="297" y="580" type="curve" smooth="yes"/>
      <point x="407" y="580"/>
      <point x="491" y="529"/>
      <point x="491" y="349" type="curve" smooth="yes"/>
      <point x="491" y="168"/>
      <point x="407" y="117"/>
      <point x="297" y="117" type="curve" smooth="yes"/>
    </contour>
    <contour>
      <point x="372" y="297" type="line"/>
      <point x="358" y="269"/>
      <point x="337" y="253"/>
      <point x="307" y="253" type="curve" smooth="yes"/>
      <point x="261" y="253"/>
      <point x="232" y="283"/>
      <point x="232" y="348" type="curve" smooth="yes"/>
      <point x="232" y="414"/>
      <point x="261" y="443"/>
      <point x="307" y="443" type="curve" smooth="yes"/>
      <point x="336" y="443"/>
      <point x="356" y="428"/>
      <point x="371" y="394" type="curve"/>
      <point x="429" y="425" type="line"/>
      <point x="404" y="474"/>
      <point x="367" y="502"/>
      <point x="309" y="502" type="curve" smooth="yes"/>
      <point x="228" y="502"/>
      <point x="164" y="462"/>
      <point x="164" y="348" type="curve" smooth="yes"/>
      <point x="164" y="235"/>
      <point x="228" y="194"/>
      <point x="309" y="194" type="curve" smooth="yes"/>
      <point x="367" y="194"/>
      <point x="405" y="222"/>
      <point x="430" y="267" type="curve"/>
    </contour>
  </outline>
</glyph>
<glyph name="registered" format="1">
  <advance width="600"/>
  <unicode hex="00AE"/>
  <outline>
    <contour>
      <point x="436" y="167"/>
      <point x="564" y="241"/>
      <point x="564" y="439" type="curve" smooth="yes"/>
      <point x="564" y="636"/>
      <point x="436" y="710"/>
      <point x="297" y="710" type="curve" smooth="yes"/>
      <point x="157" y="710"/>
      <point x="29" y="636"/>
      <point x="29" y="439" type="curve" smooth="yes"/>
      <point x="29" y="241"/>
      <point x="157" y="167"/>
      <point x="297" y="167" type="curve" smooth="yes"/>
    </contour>
    <contour>
      <point x="183" y="237"/>
      <point x="101" y="288"/>
      <point x="101" y="439" type="curve" smooth="yes"/>
      <point x="101" y="589"/>
      <point x="186" y="640"/>
      <point x="297" y="640" type="curve" smooth="yes"/>
      <point x="407" y="640"/>
      <point x="491" y="589"/>
      <point x="491" y="439" type="curve" smooth="yes"/>
      <point x="491" y="288"/>
      <point x="407" y="237"/>
      <point x="297" y="237" type="curve" smooth="yes"/>
    </contour>
    <contour>
      <point x="309" y="534" type="line" smooth="yes"/>
      <point x="342" y="534"/>
      <point x="351" y="519"/>
      <point x="351" y="498" type="curve" smooth="yes"/>
      <point x="351" y="471"/>
      <point x="342" y="459"/>
      <point x="309" y="459" type="curve" smooth="yes"/>
      <point x="259" y="459" type="line"/>
      <point x="259" y="534" type="line"/>
    </contour>
    <contour>
      <point x="352" y="407"/>
      <point x="410" y="421"/>
      <point x="410" y="499" type="curve" smooth="yes"/>
      <point x="410" y="573"/>
      <point x="352" y="585"/>
      <point x="305" y="585" type="curve" smooth="yes"/>
      <point x="201" y="585" type="line"/>
      <point x="201" y="294" type="line"/>
      <point x="259" y="294" type="line"/>
      <point x="259" y="407" type="line"/>
      <point x="305" y="407" type="line" smooth="yes"/>
    </contour>
    <contour>
      <point x="412" y="294" type="line"/>
      <point x="349" y="420" type="line"/>
      <point x="286" y="420" type="line"/>
      <point x="346" y="294" type="line"/>
    </contour>
  </outline>
</glyph>
<glyph name="macron" format="1">
  <advance width="600"/>
  <unicode hex="00AF"/>
  <outline>
    <contour>
      <point x="134" y="656" type="line"/>
      <point x="465" y="656" type="line"/>
      <point x="465" y="742" type="line"/>
      <point x="134" y="742" type="line"/>
    </contour>
  </outline>
</glyph>
<glyph name="degree" format="1">
  <advance width="600"/>
  <unicode hex="00B0"/>
  <outline>
    <contour>
      <point x="338" y="494"/>
      <point x="405" y="561"/>
      <point x="405" y="644" type="curve" smooth="yes"/>
      <point x="405" y="726"/>
      <point x="338" y="793"/>
      <point x="256" y="793" type="curve" smooth="yes"/>
      <point x="173" y="793"/>
      <point x="106" y="726"/>
      <point x="106" y="644" type="curve" smooth="yes"/>
      <point x="106" y="561"/>
      <point x="173" y="494"/>
      <point x="256" y="494" type="curve" smooth="yes"/>
    </contour>
    <contour>
      <point x="218" y="577"/>
      <point x="189" y="606"/>
      <point x="189" y="644" type="curve" smooth="yes"/>
      <point x="189" y="681"/>
      <point x="218" y="710"/>
      <point x="256" y="710" type="curve" smooth="yes"/>
      <point x="293" y="710"/>
      <point x="322" y="681"/>
      <point x="322" y="644" type="curve" smooth="yes"/>
      <point x="322" y="606"/>
      <point x="293" y="577"/>
      <point x="256" y="577" type="curve" smooth="yes"/>
    </contour>
  </outline>
</glyph>
<glyph name="plusminus" format="1">
  <advance width="600"/>
  <unicode hex="00B1"/>
  <outline>
    <contour>
      <point x="99" y="336" type="line"/>
      <point x="506" y="336" type="line"/>
      <point x="506" y="410" type="line"/>
      <point x="99" y="410" type="line"/>
    </contour>
    <contour>
      <point x="350" y="219" type="line"/>
      <point x="350" y="526" type="line"/>
      <point x="256" y="526" type="line"/>
      <point x="256" y="219" type="line"/>
    </contour>
    <contour>
      <point x="99" y="88" type="line"/>
      <point x="506" y="88" type="line"/>
      <point x="506" y="162" type="line"/>
      <point x="99" y="162" type="line"/>
    </contour>
  </outline>
</glyph>
<glyph name="paragraph" format="1">
  <advance width="600"/>
  <unicode hex="00B6"/>
  <outline>
    <contour>
      <point x="251" y="307" type="line"/>
      <point x="251" y="-120" type="line"/>
      <point x="346" y="-120" type="line"/>
      <point x="346" y="700" type="line"/>
      <point x="248" y="700" type="line" smooth="yes"/>
      <point x="154" y="700"/>
      <point x="40" y="645"/>
      <point x="40" y="508" type="curve" smooth="yes"/>
      <point x="40" y="360"/>
      <point x="154" y="307"/>
      <point x="228" y="307" type="curve" smooth="yes"/>
    </contour>
    <contour>
      <point x="519" y="-120" type="line"/>
      <point x="519" y="700" type="line"/>
      <point x="423" y="700" type="line"/>
      <point x="423" y="-120" type="line"/>
    </contour>
    <contour>
      <point x="281" y="608" type="line"/>
      <point x="483" y="608" type="line"/>
      <point x="483" y="700" type="line"/>
      <point x="281" y="700" type="line"/>
    </contour>
  </outline>
</glyph>
<glyph name="cedilla" format="1">
  <advance width="600"/>
  <unicode hex="00B8"/>
  <outline>
    <contour>
      <point x="204" y="-77" type="line"/>
      <point x="282" y="-95" type="line"/>
      <point x="322" y="0" type="line"/>
      <point x="230" y="0" type="line"/>
    </contour>
    <contour>
      <point x="292" y="-79"/>
      <point x="323" y="-82"/>
      <point x="322" y="-103" type="curve" smooth="yes"/>
      <point x="321" y="-130"/>
      <point x="261" y="-137"/>
      <point x="190" y="-125" type="curve"/>
      <point x="163" y="-192" type="line"/>
      <point x="276" y="-219"/>
      <point x="424" y="-189"/>
      <point x="425" y="-95" type="curve" smooth="yes"/>
      <point x="426" y="-24"/>
      <point x="320" y="-22"/>
      <point x="298" y="-48" type="curve"/>
      <point x="282" y="-95" type="line"/>
    </contour>
  </outline>
</glyph>
<glyph name="AE" format="1">
  <advance width="600"/>
  <unicode hex="00C6"/>
  <outline>
    <contour>
      <point x="397" y="0" type="line"/>
      <point x="397" y="700" type="line"/>
      <point x="285" y="700" type="line"/>
      <point x="285" y="0" type="line"/>
    </contour>
    <contour>
      <point x="347" y="0" type="line"/>
      <point x="585" y="0" type="line"/>
      <point x="585" y="95" type="line"/>
      <point x="347" y="95" type="line"/>
    </contour>
    <contour>
      <point x="347" y="297" type="line"/>
      <point x="538" y="297" type="line"/>
      <point x="538" y="391" type="line"/>
      <point x="347" y="391" type="line"/>
    </contour>
    <contour>
      <point x="347" y="605" type="line"/>
      <point x="585" y="605" type="line"/>
      <point x="585" y="700" type="line"/>
      <point x="347" y="700" type="line"/>
    </contour>
    <contour>
      <point x="-7" y="0" type="line"/>
      <point x="110" y="0" type="line"/>
      <point x="320" y="700" type="line"/>
      <point x="207" y="700" type="line"/>
    </contour>
    <contour>
      <point x="208" y="605" type="line"/>
      <point x="325" y="605" type="line"/>
      <point x="343" y="700" type="line"/>
      <point x="225" y="700" type="line"/>
    </contour>
    <contour>
      <point x="123" y="205" type="line"/>
      <point x="335" y="205" type="line"/>
      <point x="352" y="300" type="line"/>
      <point x="140" y="300" type="line"/>
    </contour>
  </outline>
</glyph>
<glyph name="Thorn" format="1">
  <advance width="600"/>
  <unicode hex="00DE"/>
  <outline>
    <contour>
      <point x="207" y="700" type="line"/>
      <point x="95" y="700" type="line"/>
      <point x="95" y="0" type="line"/>
      <point x="207" y="0" type="line"/>
    </contour>
    <contour>
      <point x="170" y="128" type="line"/>
      <point x="285" y="128" type="line" smooth="yes"/>
      <point x="369" y="128"/>
      <point x="516" y="146"/>
      <point x="516" y="367" type="curve" smooth="yes"/>
      <point x="516" y="578"/>
      <point x="369" y="588"/>
      <point x="285" y="588" type="curve" smooth="yes"/>
      <point x="168" y="588" type="line"/>
      <point x="168" y="493" type="line"/>
      <point x="289" y="493" type="line"/>
      <point x="354" y="493"/>
      <point x="403" y="488"/>
      <point x="403" y="367" type="curve" smooth="yes"/>
      <point x="403" y="236"/>
      <point x="354" y="223"/>
      <point x="289" y="223" type="curve" smooth="yes"/>
      <point x="170" y="223" type="line"/>
    </contour>
  </outline>
</glyph>
<glyph name="germandbls" format="1">
  <advance width="600"/>
  <unicode hex="00DF"/>
  <outline>
    <contour>
      <point x="169" y="0" type="line"/>
      <point x="169" y="502" type="line"/>
      <point x="57" y="520" type="line"/>
      <point x="57" y="0" type="line"/>
    </contour>
    <contour>
      <point x="223" y="2" type="line"/>
      <point x="256" y="-7"/>
      <point x="291" y="-11"/>
      <point x="323" y="-11" type="curve" smooth="yes"/>
      <point x="444" y="-11"/>
      <point x="569" y="48"/>
      <point x="569" y="197" type="curve"/>
      <point x="451" y="197" type="line"/>
      <point x="451" y="115"/>
      <point x="403" y="85"/>
      <point x="323" y="85" type="curve" smooth="yes"/>
      <point x="296" y="85"/>
      <point x="270" y="90"/>
      <point x="247" y="99" type="curve"/>
    </contour>
    <contour>
      <point x="519" y="550" type="line"/>
      <point x="519" y="668"/>
      <point x="405" y="726"/>
      <point x="297" y="726" type="curve" smooth="yes"/>
      <point x="189" y="726"/>
      <point x="57" y="668"/>
      <point x="57" y="520" type="curve"/>
      <point x="169" y="502" type="line"/>
      <point x="169" y="595"/>
      <point x="233" y="630"/>
      <point x="297" y="630" type="curve" smooth="yes"/>
      <point x="354" y="630"/>
      <point x="400" y="612"/>
      <point x="400" y="547" type="curve"/>
    </contour>
    <contour>
      <point x="400" y="547" type="line"/>
      <point x="400" y="466"/>
      <point x="299" y="480"/>
      <point x="299" y="391" type="curve" smooth="yes"/>
      <point x="299" y="302"/>
      <point x="451" y="302"/>
      <point x="451" y="197" type="curve"/>
      <point x="569" y="197" type="line"/>
      <point x="569" y="350"/>
      <point x="415" y="354"/>
      <point x="415" y="391" type="curve" smooth="yes"/>
      <point x="415" y="428"/>
      <point x="519" y="436"/>
      <point x="519" y="550" type="curve"/>
    </contour>
  </outline>
</glyph>
<glyph name="ae" format="1">
  <advance width="600"/>
  <unicode hex="00E6"/>
  <outline>
    <contour>
      <point x="307" y="-11"/>
      <point x="311" y="76"/>
      <point x="311" y="76" type="curve"/>
      <point x="267" y="148" type="line"/>
      <point x="260" y="114"/>
      <point x="246" y="84"/>
      <point x="195" y="84" type="curve"/>
      <point x="155" y="84"/>
      <point x="117" y="99"/>
      <point x="117" y="153" type="curve"/>
      <point x="12" y="153" type="line"/>
      <point x="12" y="41"/>
      <point x="79" y="-11"/>
      <point x="178" y="-11" type="curve"/>
    </contour>
    <contour>
      <point x="117" y="153" type="line"/>
      <point x="117" y="215"/>
      <point x="173" y="218"/>
      <point x="232" y="218" type="curve"/>
      <point x="204" y="314" type="line"/>
      <point x="98" y="314"/>
      <point x="12" y="264"/>
      <point x="12" y="153" type="curve"/>
    </contour>
    <contour>
      <point x="320" y="218" type="line"/>
      <point x="320" y="314" type="line"/>
      <point x="204" y="314" type="line"/>
      <point x="232" y="218" type="line"/>
    </contour>
    <contour>
      <point x="339" y="349" type="line"/>
      <point x="339" y="440"/>
      <point x="281" y="512"/>
      <point x="195" y="512" type="curve"/>
      <point x="117" y="512"/>
      <point x="57" y="486"/>
      <point x="9" y="449" type="curve"/>
      <point x="76" y="375" type="line"/>
      <point x="100" y="397"/>
      <point x="143" y="416"/>
      <point x="190" y="416" type="curve"/>
      <point x="233" y="416"/>
      <point x="253" y="390"/>
      <point x="253" y="335" type="curve"/>
    </contour>
    <contour>
      <point x="349" y="209" type="line"/>
      <point x="349" y="355" type="line"/>
      <point x="253" y="335" type="line"/>
      <point x="253" y="209" type="line"/>
    </contour>
    <contour>
      <point x="496" y="146" type="line"/>
      <point x="486" y="119"/>
      <point x="470" y="85"/>
      <point x="434" y="85" type="curve" smooth="yes"/>
      <point x="386" y="85"/>
      <point x="361" y="118"/>
      <point x="361" y="251" type="curve" smooth="yes"/>
      <point x="361" y="384"/>
      <point x="374" y="416"/>
      <point x="431" y="416" type="curve" smooth="yes"/>
      <point x="484" y="416"/>
      <point x="486" y="351"/>
      <point x="486" y="312" type="curve"/>
      <point x="590" y="218" type="line"/>
      <point x="600" y="388"/>
      <point x="560" y="512"/>
      <point x="439" y="512" type="curve" smooth="yes"/>
      <point x="322" y="512"/>
      <point x="251" y="444"/>
      <point x="251" y="247" type="curve" smooth="yes"/>
      <point x="251" y="54"/>
      <point x="318" y="-11"/>
      <point x="432" y="-11" type="curve" smooth="yes"/>
      <point x="496" y="-11"/>
      <point x="557" y="24"/>
      <point x="587" y="105" type="curve"/>
    </contour>
    <contour>
      <point x="347" y="218" type="line"/>
      <point x="590" y="218" type="line"/>
      <point x="530" y="312" type="line"/>
      <point x="347" y="312" type="line"/>
    </contour>
  </outline>
</glyph>
<glyph name="eth" format="1">
  <advance width="600"/>
  <unicode hex="00F0"/>
  <outline>
    <contour>
      <point x="215" y="85"/>
      <point x="178" y="167"/>
      <point x="178" y="251" type="curve" smooth="yes"/>
      <point x="178" y="337"/>
      <point x="204" y="416"/>
      <point x="280" y="416" type="curve" smooth="yes"/>
      <point x="344" y="416"/>
      <point x="398" y="385"/>
      <point x="425" y="330" type="curve"/>
      <point x="475" y="373" type="line"/>
      <point x="427" y="463"/>
      <point x="371" y="512"/>
      <point x="280" y="512" type="curve" smooth="yes"/>
      <point x="143" y="512"/>
      <point x="60" y="414"/>
      <point x="60" y="251" type="curve" smooth="yes"/>
      <point x="60" y="90"/>
      <point x="155" y="-11"/>
      <point x="292" y="-11" type="curve"/>
      <point x="292" y="85" type="line"/>
    </contour>
    <contour>
      <point x="202" y="652" type="line"/>
      <point x="360" y="622"/>
      <point x="419" y="516"/>
      <point x="419" y="328" type="curve" smooth="yes"/>
      <point x="419" y="142"/>
      <point x="385" y="85"/>
      <point x="292" y="85" type="curve"/>
      <point x="292" y="-11" type="line"/>
      <point x="439" y="-11"/>
      <point x="537" y="65"/>
      <point x="537" y="328" type="curve" smooth="yes"/>
      <point x="537" y="586"/>
      <point x="411" y="686"/>
      <point x="242" y="723" type="curve"/>
    </contour>
    <contour>
      <point x="224" y="595" type="line"/>
      <point x="271" y="551" type="line"/>
      <point x="460" y="671" type="line"/>
      <point x="424" y="725" type="line"/>
    </contour>
  </outline>
</glyph>
<glyph name="divide" format="1">
  <advance width="600"/>
  <unicode hex="00F7"/>
  <outline>
    <contour>
      <point x="106" y="257" type="line"/>
      <point x="499" y="257" type="line"/>
      <point x="499" y="351" type="line"/>
      <point x="106" y="351" type="line"/>
    </contour>
    <contour>
      <point x="333" y="77"/>
      <point x="361" y="106"/>
      <point x="361" y="142" type="curve" smooth="yes"/>
      <point x="361" y="176"/>
      <point x="333" y="205"/>
      <point x="298" y="205" type="curve" smooth="yes"/>
      <point x="263" y="205"/>
      <point x="235" y="176"/>
      <point x="235" y="142" type="curve" smooth="yes"/>
      <point x="235" y="106"/>
      <point x="263" y="77"/>
      <point x="298" y="77" type="curve" smooth="yes"/>
    </contour>
    <contour>
      <point x="333" y="406"/>
      <point x="361" y="435"/>
      <point x="361" y="470" type="curve" smooth="yes"/>
      <point x="361" y="505"/>
      <point x="333" y="534"/>
      <point x="298" y="534" type="curve" smooth="yes"/>
      <point x="263" y="534"/>
      <point x="235" y="505"/>
      <point x="235" y="470" type="curve" smooth="yes"/>
      <point x="235" y="435"/>
      <point x="263" y="406"/>
      <point x="298" y="406" type="curve" smooth="yes"/>
    </contour>
  </outline>
</glyph>
<glyph name="thorn" format="1">
  <advance width="600"/>
  <unicode hex="00FE"/>
  <outline>
    <contour>
      <point x="190" y="-200" type="line"/>
      <point x="190" y="800" type="line"/>
      <point x="77" y="800" type="line"/>
      <point x="77" y="-200" type="line"/>
    </contour>
    <contour>
      <point x="181" y="309" type="line"/>
      <point x="194" y="342"/>
      <point x="234" y="415"/>
      <point x="316" y="415" type="curve" smooth="yes"/>
      <point x="402" y="415"/>
      <point x="428" y="367"/>
      <point x="428" y="251" type="curve"/>
      <point x="540" y="251" type="line"/>
      <point x="540" y="434"/>
      <point x="468" y="511"/>
      <point x="339" y="511" type="curve" smooth="yes"/>
      <point x="212" y="511"/>
      <point x="135" y="414"/>
      <point x="135" y="302" type="curve"/>
    </contour>
    <contour>
      <point x="135" y="98"/>
      <point x="202" y="-11"/>
      <point x="329" y="-11" type="curve" smooth="yes"/>
      <point x="458" y="-11"/>
      <point x="540" y="68"/>
      <point x="540" y="251" type="curve"/>
      <point x="428" y="251" type="line"/>
      <point x="428" y="135"/>
      <point x="392" y="85"/>
      <point x="306" y="85" type="curve" smooth="yes"/>
      <point x="224" y="85"/>
      <point x="184" y="160"/>
      <point x="181" y="203" type="curve"/>
      <point x="135" y="210" type="line"/>
    </contour>
  </outline>
</glyph>
<glyph name="aogonek" format="1">
  <advance width="600"/>
  <unicode hex="0105"/>
  <outline>
    <contour>
      <point x="532" y="0" type="line"/>
      <point x="573" y="39" type="line"/>
      <point x="563" y="49" type="line"/>
      <point x="445" y="0" type="line"/>
    </contour>
    <component base="a"/>
    <component base="ogonekcomb" xOffset="164"/>
  </outline>
</glyph>
<glyph name="idotless" format="1">
  <advance width="600"/>
  <unicode hex="0131"/>
  <outline>
    <contour>
      <point x="110" y="405" type="line"/>
      <point x="250" y="405" type="line"/>
      <point x="250" y="500" type="line"/>
      <point x="110" y="500" type="line"/>
    </contour>
    <contour>
      <point x="357" y="56" type="line"/>
      <point x="357" y="500" type="line"/>
      <point x="245" y="500" type="line"/>
      <point x="245" y="31" type="line"/>
    </contour>
    <contour>
      <point x="245" y="0" type="line"/>
      <point x="483" y="0" type="line"/>
      <point x="483" y="95" type="line"/>
      <point x="245" y="95" type="line"/>
    </contour>
  </outline>
</glyph>
<glyph name="Lslash" format="1">
  <advance width="600"/>
  <unicode hex="0141"/>
  <outline>
    <contour>
      <point x="51" y="160" type="line"/>
      <point x="335" y="445" type="line"/>
      <point x="335" y="549" type="line"/>
      <point x="51" y="263" type="line"/>
    </contour>
    <component base="L"/>
  </outline>
</glyph>
<glyph name="lslash" format="1">
  <advance width="600"/>
  <unicode hex="0142"/>
  <outline>
    <contour>
      <point x="151" y="160" type="line"/>
      <point x="411" y="420" type="line"/>
      <point x="411" y="524" type="line"/>
      <point x="151" y="263" type="line"/>
    </contour>
    <component base="l"/>
  </outline>
</glyph>
<glyph name="Eng" format="1">
  <advance width="600"/>
  <unicode hex="014A"/>
  <outline>
    <contour>
      <point x="531" y="20" type="line"/>
      <point x="208" y="700" type="line"/>
      <point x="95" y="700" type="line"/>
      <point x="427" y="0" type="line"/>
    </contour>
    <contour>
      <point x="442" y="-192"/>
      <point x="531" y="-133"/>
      <point x="531" y="-12" type="curve"/>
      <point x="531" y="28" type="line"/>
      <point x="425" y="5" type="line"/>
      <point x="425" y="-68"/>
      <point x="398" y="-96"/>
      <point x="319" y="-96" type="curve"/>
      <point x="278" y="-96"/>
      <point x="236" y="-89"/>
      <point x="220" y="-83" type="curve"/>
      <point x="196" y="-178" type="line"/>
      <point x="220" y="-184"/>
      <point x="274" y="-192"/>
      <point x="326" y="-192" type="curve"/>
    </contour>
    <contour>
      <point x="184" y="0" type="line"/>
      <point x="184" y="700" type="line"/>
      <point x="71" y="700" type="line"/>
      <point x="71" y="0" type="line"/>
    </contour>
    <contour>
      <point x="531" y="222" type="line"/>
      <point x="482" y="700" type="line"/>
      <point x="418" y="494" type="line"/>
      <point x="467" y="0" type="line"/>
    </contour>
  </outline>
</glyph>
<glyph name="eng" format="1">
  <advance width="600"/>
  <unicode hex="014B"/>
  <outline>
    <contour>
      <point x="225" y="-183" type="line"/>
      <point x="249" y="-189"/>
      <point x="277" y="-192"/>
      <point x="309" y="-192" type="curve"/>
      <point x="425" y="-192"/>
      <point x="518" y="-130"/>
      <point x="518" y="-12" type="curve"/>
      <point x="518" y="22" type="line"/>
      <point x="406" y="5" type="line"/>
      <point x="406" y="-59"/>
      <point x="384" y="-94"/>
      <point x="302" y="-94" type="curve"/>
      <point x="281" y="-94"/>
      <point x="263" y="-91"/>
      <point x="249" y="-86" type="curve"/>
    </contour>
    <component base="n"/>
  </outline>
</glyph>
<glyph name="OE" format="1">
  <advance width="600"/>
  <unicode hex="0152"/>
  <outline>
    <contour>
      <point x="256" y="-11"/>
      <point x="289" y="-3"/>
      <point x="318" y="19" type="curve"/>
      <point x="269" y="111" type="line"/>
      <point x="254" y="93"/>
      <point x="238" y="85"/>
      <point x="220" y="85" type="curve" smooth="yes"/>
      <point x="170" y="85"/>
      <point x="133" y="130"/>
      <point x="133" y="348" type="curve" smooth="yes"/>
      <point x="133" y="565"/>
      <point x="170" y="610"/>
      <point x="220" y="610" type="curve" smooth="yes"/>
      <point x="239" y="610"/>
      <point x="254" y="603"/>
      <point x="269" y="583" type="curve"/>
      <point x="327" y="669" type="line"/>
      <point x="296" y="696"/>
      <point x="259" y="706"/>
      <point x="220" y="706" type="curve" smooth="yes"/>
      <point x="113" y="706"/>
      <point x="16" y="641"/>
      <point x="16" y="348" type="curve" smooth="yes"/>
      <point x="16" y="54"/>
      <point x="113" y="-11"/>
      <point x="220" y="-11" type="curve" smooth="yes"/>
    </contour>
    <contour>
      <point x="575" y="0" type="line"/>
      <point x="575" y="95" type="line"/>
      <point x="276" y="95" type="line"/>
      <point x="276" y="0" type="line"/>
    </contour>
    <contour>
      <point x="381" y="0" type="line"/>
      <point x="381" y="700" type="line"/>
      <point x="266" y="700" type="line"/>
      <point x="266" y="0" type="line"/>
    </contour>
    <contour>
      <point x="551" y="297" type="line"/>
      <point x="551" y="391" type="line"/>
      <point x="356" y="391" type="line"/>
      <point x="356" y="297" type="line"/>
    </contour>
    <contour>
      <point x="575" y="605" type="line"/>
      <point x="575" y="700" type="line"/>
      <point x="266" y="700" type="line"/>
      <point x="266" y="605" type="line"/>
    </contour>
  </outline>
</glyph>
<glyph name="oe" format="1">
  <advance width="600"/>
  <unicode hex="0153"/>
  <outline>
    <contour>
      <point x="300" y="-11"/>
      <point x="348" y="108"/>
      <point x="348" y="251" type="curve" smooth="yes"/>
      <point x="348" y="393"/>
      <point x="300" y="512"/>
      <point x="184" y="512" type="curve" smooth="yes"/>
      <point x="87" y="512"/>
      <point x="16" y="443"/>
      <point x="16" y="251" type="curve" smooth="yes"/>
      <point x="16" y="58"/>
      <point x="87" y="-11"/>
      <point x="184" y="-11" type="curve" smooth="yes"/>
    </contour>
    <contour>
      <point x="147" y="85"/>
      <point x="123" y="117"/>
      <point x="123" y="251" type="curve" smooth="yes"/>
      <point x="123" y="384"/>
      <point x="147" y="416"/>
      <point x="184" y="416" type="curve" smooth="yes"/>
      <point x="220" y="416"/>
      <point x="244" y="384"/>
      <point x="244" y="251" type="curve" smooth="yes"/>
      <point x="244" y="117"/>
      <point x="220" y="85"/>
      <point x="184" y="85" type="curve" smooth="yes"/>
    </contour>
    <contour>
      <point x="491" y="-11"/>
      <point x="550" y="24"/>
      <point x="580" y="105" type="curve"/>
      <point x="489" y="146" type="line"/>
      <point x="479" y="119"/>
      <point x="465" y="85"/>
      <point x="429" y="85" type="curve" smooth="yes"/>
      <point x="381" y="85"/>
      <point x="360" y="118"/>
      <point x="360" y="251" type="curve" smooth="yes"/>
      <point x="360" y="384"/>
      <point x="379" y="416"/>
      <point x="426" y="416" type="curve" smooth="yes"/>
      <point x="479" y="416"/>
      <point x="480" y="351"/>
      <point x="480" y="312" type="curve"/>
      <point x="583" y="218" type="line"/>
      <point x="593" y="388"/>
      <point x="552" y="512"/>
      <point x="431" y="512" type="curve" smooth="yes"/>
      <point x="303" y="512"/>
      <point x="251" y="410"/>
      <point x="251" y="247" type="curve" smooth="yes"/>
      <point x="251" y="88"/>
      <point x="299" y="-11"/>
      <point x="427" y="-11" type="curve" smooth="yes"/>
    </contour>
    <contour>
      <point x="583" y="218" type="line"/>
      <point x="523" y="312" type="line"/>
      <point x="347" y="312" type="line"/>
      <point x="347" y="218" type="line"/>
    </contour>
  </outline>
</glyph>
<glyph name="uogonek" format="1">
  <advance width="600"/>
  <unicode hex="0173"/>
  <outline>
    <contour>
      <point x="429" y="0" type="line"/>
      <point x="477" y="-12" type="line"/>
      <point x="477" y="23" type="line"/>
      <point x="444" y="6" type="line"/>
    </contour>
    <component base="u"/>
    <component base="ogonekcomb" xOffset="149"/>
  </outline>
</glyph>
<glyph name="circumflex" format="1">
  <advance width="600"/>
  <unicode hex="02C6"/>
  <outline>
    <contour>
      <point x="352" y="753" type="line"/>
      <point x="247" y="753" type="line"/>
      <point x="126" y="619" type="line"/>
      <point x="242" y="619" type="line"/>
      <point x="300" y="693" type="line"/>
      <point x="357" y="619" type="line"/>
      <point x="473" y="619" type="line"/>
    </contour>
  </outline>
</glyph>
<glyph name="caron" format="1">
  <advance width="600"/>
  <unicode hex="02C7"/>
  <outline>
    <contour>
      <point x="357" y="753" type="line"/>
      <point x="300" y="679" type="line"/>
      <point x="242" y="753" type="line"/>
      <point x="126" y="753" type="line"/>
      <point x="247" y="619" type="line"/>
      <point x="352" y="619" type="line"/>
      <point x="473" y="753" type="line"/>
    </contour>
  </outline>
</glyph>
<glyph name="breve" format="1">
  <advance width="600"/>
  <unicode hex="02D8"/>
  <outline>
    <contour>
      <point x="341" y="746" type="line"/>
      <point x="341" y="735"/>
      <point x="341" y="681"/>
      <point x="300" y="681" type="curve" smooth="yes"/>
      <point x="260" y="681"/>
      <point x="259" y="735"/>
      <point x="259" y="746" type="curve"/>
      <point x="171" y="746" type="line"/>
      <point x="171" y="684"/>
      <point x="206" y="616"/>
      <point x="299" y="616" type="curve" smooth="yes"/>
      <point x="392" y="616"/>
      <point x="429" y="684"/>
      <point x="429" y="746" type="curve"/>
    </contour>
  </outline>
</glyph>
<glyph name="dotaccent" format="1">
  <advance width="600"/>
  <unicode hex="02D9"/>
  <outline>
    <contour>
      <point x="333" y="633"/>
      <point x="364" y="664"/>
      <point x="364" y="703" type="curve" smooth="yes"/>
      <point x="364" y="743"/>
      <point x="333" y="774"/>
      <point x="294" y="774" type="curve" smooth="yes"/>
      <point x="255" y="774"/>
      <point x="224" y="743"/>
      <point x="224" y="703" type="curve" smooth="yes"/>
      <point x="224" y="664"/>
      <point x="255" y="633"/>
      <point x="294" y="633" type="curve" smooth="yes"/>
    </contour>
  </outline>
</glyph>
<glyph name="ring" format="1">
  <advance width="600"/>
  <unicode hex="02DA"/>
  <outline>
    <contour>
      <point x="353" y="561"/>
      <point x="399" y="605"/>
      <point x="399" y="663" type="curve" smooth="yes"/>
      <point x="399" y="719"/>
      <point x="353" y="764"/>
      <point x="298" y="764" type="curve" smooth="yes"/>
      <point x="241" y="764"/>
      <point x="195" y="719"/>
      <point x="195" y="663" type="curve" smooth="yes"/>
      <point x="195" y="605"/>
      <point x="241" y="561"/>
      <point x="298" y="561" type="curve" smooth="yes"/>
    </contour>
    <contour>
      <point x="277" y="625"/>
      <point x="261" y="641"/>
      <point x="261" y="663" type="curve" smooth="yes"/>
      <point x="261" y="683"/>
      <point x="277" y="698"/>
      <point x="298" y="698" type="curve" smooth="yes"/>
      <point x="318" y="698"/>
      <point x="334" y="683"/>
      <point x="334" y="663" type="curve" smooth="yes"/>
      <point x="334" y="641"/>
      <point x="318" y="625"/>
      <point x="298" y="625" type="curve" smooth="yes"/>
    </contour>
  </outline>
</glyph>
<glyph name="ogonek" format="1">
  <advance width="600"/>
  <unicode hex="02DB"/>
  <outline>
    <contour>
      <point x="281" y="0" type="line" smooth="yes"/>
      <point x="281" y="0"/>
      <point x="185" y="-35"/>
      <point x="185" y="-110" type="curve" smooth="yes"/>
      <point x="185" y="-210"/>
      <point x="329" y="-215"/>
      <point x="415" y="-188" type="curve"/>
      <point x="383" y="-110" type="line"/>
      <point x="363" y="-115"/>
      <point x="304" y="-127"/>
      <point x="304" y="-83" type="curve" smooth="yes"/>
      <point x="304" y="-38"/>
      <point x="368" y="0"/>
      <point x="368" y="0" type="curve" smooth="yes"/>
    </contour>
  </outline>
</glyph>
<glyph name="tilde" format="1">
  <advance width="600"/>
  <unicode hex="02DC"/>
  <outline>
    <contour>
      <point x="97" y="699"/>
      <point x="145" y="763"/>
      <point x="219" y="763" type="curve" smooth="yes"/>
      <point x="296" y="763"/>
      <point x="320" y="706"/>
      <point x="363" y="706" type="curve" smooth="yes"/>
      <point x="406" y="706"/>
      <point x="436" y="753"/>
      <point x="436" y="753" type="curve"/>
      <point x="495" y="700" type="line"/>
      <point x="488" y="691"/>
      <point x="440" y="628"/>
      <point x="366" y="628" type="curve" smooth="yes"/>
      <point x="289" y="628"/>
      <point x="264" y="683"/>
      <point x="221" y="683" type="curve" smooth="yes"/>
      <point x="178" y="683"/>
      <point x="151" y="637"/>
      <point x="151" y="637" type="curve"/>
      <point x="93" y="690" type="line"/>
    </contour>
  </outline>
</glyph>
<glyph name="hungarumlaut" format="1">
  <advance width="600"/>
  <unicode hex="02DD"/>
  <outline>
    <contour>
      <point x="249" y="609" type="line"/>
      <point x="335" y="752" type="line"/>
      <point x="221" y="752" type="line"/>
      <point x="160" y="609" type="line"/>
    </contour>
    <contour>
      <point x="388" y="609" type="line"/>
      <point x="512" y="752" type="line"/>
      <point x="391" y="752" type="line"/>
      <point x="304" y="609" type="line"/>
    </contour>
  </outline>
</glyph>
<glyph name="strokeshortcomb" format="1">
  <advance width="600"/>
  <unicode hex="0335"/>
  <outline>
    <contour>
      <point x="142" y="318" type="line"/>
      <point x="452" y="318" type="line"/>
      <point x="452" y="390" type="line"/>
      <point x="142" y="390" type="line"/>
    </contour>
  </outline>
</glyph>
<glyph name="strokelongcomb" format="1">
  <advance width="600"/>
  <unicode hex="0336"/>
  <outline>
    <contour>
      <point x="72" y="318" type="line"/>
      <point x="526" y="318" type="line"/>
      <point x="526" y="390" type="line"/>
      <point x="72" y="390" type="line"/>
    </contour>
  </outline>
</glyph>
<glyph name="slashshortcomb" format="1">
  <advance width="600"/>
  <unicode hex="0337"/>
  <outline>
    <contour>
      <point x="435" y="540" type="line"/>
      <point x="44" y="-39" type="line"/>
      <point x="137" y="-39" type="line"/>
      <point x="528" y="540" type="line"/>
    </contour>
  </outline>
</glyph>
<glyph name="slashlongcomb" format="1">
  <advance width="600"/>
  <unicode hex="0338"/>
  <outline>
    <contour>
      <point x="489" y="733" type="line"/>
      <point x="14" y="-39" type="line"/>
      <point x="107" y="-39" type="line"/>
      <point x="582" y="733" type="line"/>
    </contour>
  </outline>
</glyph>
<glyph name="endash" format="1">
  <advance width="600"/>
  <unicode hex="2013"/>
  <outline>
    <contour>
      <point x="102" y="257" type="line"/>
      <point x="488" y="257" type="line"/>
      <point x="488" y="351" type="line"/>
      <point x="102" y="351" type="line"/>
    </contour>
  </outline>
</glyph>
<glyph name="emdash" format="1">
  <advance width="600"/>
  <unicode hex="2014"/>
  <outline>
    <contour>
      <point x="23" y="257" type="line"/>
      <point x="575" y="257" type="line"/>
      <point x="575" y="351" type="line"/>
      <point x="23" y="351" type="line"/>
    </contour>
  </outline>
</glyph>
<glyph name="quoteleft" format="1">
  <advance width="600"/>
  <unicode hex="2018"/>
  <outline>
    <contour>
      <point x="256" y="676"/>
      <point x="223" y="643"/>
      <point x="223" y="602" type="curve" smooth="yes"/>
      <point x="223" y="561"/>
      <point x="256" y="529"/>
      <point x="297" y="529" type="curve" smooth="yes"/>
      <point x="338" y="529"/>
      <point x="371" y="561"/>
      <point x="371" y="602" type="curve" smooth="yes"/>
      <point x="371" y="643"/>
      <point x="338" y="676"/>
      <point x="297" y="676" type="curve" smooth="yes"/>
    </contour>
    <contour>
      <point x="348" y="755" type="line"/>
      <point x="290" y="780" type="line"/>
      <point x="229" y="631" type="line"/>
      <point x="312" y="640" type="line"/>
    </contour>
  </outline>
</glyph>
<glyph name="quoteright" format="1">
  <advance width="600"/>
  <unicode hex="2019"/>
  <outline>
    <contour>
      <point x="347" y="633"/>
      <point x="379" y="666"/>
      <point x="379" y="707" type="curve" smooth="yes"/>
      <point x="379" y="748"/>
      <point x="347" y="780"/>
      <point x="305" y="780" type="curve" smooth="yes"/>
      <point x="264" y="780"/>
      <point x="231" y="748"/>
      <point x="231" y="707" type="curve" smooth="yes"/>
      <point x="231" y="666"/>
      <point x="264" y="633"/>
      <point x="305" y="633" type="curve" smooth="yes"/>
    </contour>
    <contour>
      <point x="254" y="554" type="line"/>
      <point x="312" y="529" type="line"/>
      <point x="373" y="678" type="line"/>
      <point x="290" y="669" type="line"/>
    </contour>
  </outline>
</glyph>
<glyph name="quotedblleft" format="1">
  <advance width="600"/>
  <unicode hex="201C"/>
  <outline>
    <contour>
      <point x="257" y="644" type="line"/>
      <point x="293" y="759" type="line"/>
      <point x="235" y="784" type="line"/>
      <point x="174" y="635" type="line"/>
    </contour>
    <contour>
      <point x="474" y="533"/>
      <point x="506" y="565"/>
      <point x="506" y="606" type="curve" smooth="yes"/>
      <point x="506" y="647"/>
      <point x="474" y="680"/>
      <point x="432" y="680" type="curve" smooth="yes"/>
      <point x="391" y="680"/>
      <point x="358" y="647"/>
      <point x="358" y="606" type="curve" smooth="yes"/>
      <point x="358" y="565"/>
      <point x="391" y="533"/>
      <point x="432" y="533" type="curve" smooth="yes"/>
    </contour>
    <contour>
      <point x="447" y="644" type="line"/>
      <point x="484" y="759" type="line"/>
      <point x="425" y="784" type="line"/>
      <point x="364" y="635" type="line"/>
    </contour>
    <contour>
      <point x="283" y="533"/>
      <point x="316" y="565"/>
      <point x="316" y="606" type="curve" smooth="yes"/>
      <point x="316" y="647"/>
      <point x="283" y="680"/>
      <point x="242" y="680" type="curve" smooth="yes"/>
      <point x="200" y="680"/>
      <point x="168" y="647"/>
      <point x="168" y="606" type="curve" smooth="yes"/>
      <point x="168" y="565"/>
      <point x="200" y="533"/>
      <point x="242" y="533" type="curve" smooth="yes"/>
    </contour>
  </outline>
</glyph>
<glyph name="quotedblright" format="1">
  <advance width="600"/>
  <unicode hex="201D"/>
  <outline>
    <contour>
      <point x="412" y="636"/>
      <point x="445" y="668"/>
      <point x="445" y="710" type="curve" smooth="yes"/>
      <point x="445" y="750"/>
      <point x="412" y="783"/>
      <point x="371" y="783" type="curve" smooth="yes"/>
      <point x="329" y="783"/>
      <point x="297" y="750"/>
      <point x="297" y="710" type="curve" smooth="yes"/>
      <point x="297" y="668"/>
      <point x="329" y="636"/>
      <point x="371" y="636" type="curve" smooth="yes"/>
    </contour>
    <contour>
      <point x="244" y="680" type="line"/>
      <point x="161" y="671" type="line"/>
      <point x="125" y="556" type="line"/>
      <point x="183" y="531" type="line"/>
    </contour>
    <contour>
      <point x="218" y="636"/>
      <point x="250" y="668"/>
      <point x="250" y="710" type="curve" smooth="yes"/>
      <point x="250" y="750"/>
      <point x="218" y="783"/>
      <point x="176" y="783" type="curve" smooth="yes"/>
      <point x="135" y="783"/>
      <point x="102" y="750"/>
      <point x="102" y="710" type="curve" smooth="yes"/>
      <point x="102" y="668"/>
      <point x="135" y="636"/>
      <point x="176" y="636" type="curve" smooth="yes"/>
    </contour>
    <contour>
      <point x="439" y="680" type="line"/>
      <point x="356" y="671" type="line"/>
      <point x="320" y="556" type="line"/>
      <point x="378" y="531" type="line"/>
    </contour>
  </outline>
</glyph>
<glyph name="dagger" format="1">
  <advance width="600"/>
  <unicode hex="2020"/>
  <outline>
    <contour>
      <point x="351" y="0" type="line"/>
      <point x="351" y="680" type="line"/>
      <point x="246" y="680" type="line"/>
      <point x="246" y="0" type="line"/>
    </contour>
    <contour>
      <point x="117" y="405" type="line"/>
      <point x="482" y="405" type="line"/>
      <point x="482" y="500" type="line"/>
      <point x="117" y="500" type="line"/>
    </contour>
  </outline>
</glyph>
<glyph name="bullet" format="1">
  <advance width="600"/>
  <unicode hex="2022"/>
  <outline>
    <contour>
      <point x="370" y="201"/>
      <point x="430" y="261"/>
      <point x="430" y="335" type="curve" smooth="yes"/>
      <point x="430" y="410"/>
      <point x="370" y="470"/>
      <point x="296" y="470" type="curve" smooth="yes"/>
      <point x="222" y="470"/>
      <point x="162" y="410"/>
      <point x="162" y="335" type="curve" smooth="yes"/>
      <point x="162" y="261"/>
      <point x="222" y="201"/>
      <point x="296" y="201" type="curve" smooth="yes"/>
    </contour>
  </outline>
</glyph>
<glyph name="perthousand" format="1">
  <advance width="600"/>
  <unicode hex="2030"/>
  <outline>
    <contour>
      <point x="569" y="537" type="line"/>
      <point x="526" y="595" type="line"/>
      <point x="11" y="276" type="line"/>
      <point x="54" y="218" type="line"/>
    </contour>
    <contour>
      <point x="248" y="3"/>
      <point x="297" y="32"/>
      <point x="297" y="111" type="curve" smooth="yes"/>
      <point x="297" y="188"/>
      <point x="248" y="217"/>
      <point x="193" y="217" type="curve" smooth="yes"/>
      <point x="138" y="217"/>
      <point x="90" y="188"/>
      <point x="90" y="111" type="curve" smooth="yes"/>
      <point x="90" y="32"/>
      <point x="138" y="3"/>
      <point x="193" y="3" type="curve" smooth="yes"/>
    </contour>
    <contour>
      <point x="170" y="50"/>
      <point x="152" y="63"/>
      <point x="152" y="112" type="curve" smooth="yes"/>
      <point x="152" y="156"/>
      <point x="170" y="170"/>
      <point x="193" y="170" type="curve" smooth="yes"/>
      <point x="215" y="170"/>
      <point x="235" y="156"/>
      <point x="235" y="112" type="curve" smooth="yes"/>
      <point x="235" y="63"/>
      <point x="215" y="50"/>
      <point x="193" y="50" type="curve" smooth="yes"/>
    </contour>
    <contour>
      <point x="498" y="3"/>
      <point x="547" y="32"/>
      <point x="547" y="111" type="curve" smooth="yes"/>
      <point x="547" y="188"/>
      <point x="498" y="217"/>
      <point x="443" y="217" type="curve" smooth="yes"/>
      <point x="388" y="217"/>
      <point x="340" y="188"/>
      <point x="340" y="111" type="curve" smooth="yes"/>
      <point x="340" y="32"/>
      <point x="388" y="3"/>
      <point x="443" y="3" type="curve" smooth="yes"/>
    </contour>
    <contour>
      <point x="420" y="50"/>
      <point x="402" y="63"/>
      <point x="402" y="112" type="curve" smooth="yes"/>
      <point x="402" y="156"/>
      <point x="420" y="170"/>
      <point x="443" y="170" type="curve" smooth="yes"/>
      <point x="465" y="170"/>
      <point x="485" y="156"/>
      <point x="485" y="112" type="curve" smooth="yes"/>
      <point x="485" y="63"/>
      <point x="465" y="50"/>
      <point x="443" y="50" type="curve" smooth="yes"/>
    </contour>
    <contour>
      <point x="249" y="469"/>
      <point x="298" y="498"/>
      <point x="298" y="577" type="curve" smooth="yes"/>
      <point x="298" y="654"/>
      <point x="249" y="683"/>
      <point x="194" y="683" type="curve" smooth="yes"/>
      <point x="139" y="683"/>
      <point x="91" y="654"/>
      <point x="91" y="577" type="curve" smooth="yes"/>
      <point x="91" y="498"/>
      <point x="139" y="469"/>
      <point x="194" y="469" type="curve" smooth="yes"/>
    </contour>
    <contour>
      <point x="171" y="516"/>
      <point x="153" y="529"/>
      <point x="153" y="578" type="curve" smooth="yes"/>
      <point x="153" y="622"/>
      <point x="171" y="636"/>
      <point x="194" y="636" type="curve" smooth="yes"/>
      <point x="216" y="636"/>
      <point x="236" y="622"/>
      <point x="236" y="578" type="curve" smooth="yes"/>
      <point x="236" y="529"/>
      <point x="216" y="516"/>
      <point x="194" y="516" type="curve" smooth="yes"/>
    </contour>
  </outline>
</glyph>
<glyph name="guilsinglleft" format="1">
  <advance width="600"/>
  <unicode hex="2039"/>
  <outline>
    <contour>
      <point x="230" y="249" type="line"/>
      <point x="430" y="477" type="line"/>
      <point x="378" y="530" type="line"/>
      <point x="152" y="338" type="line"/>
    </contour>
    <contour>
      <point x="378" y="57" type="line"/>
      <point x="430" y="110" type="line"/>
      <point x="230" y="339" type="line"/>
      <point x="152" y="249" type="line"/>
    </contour>
    <contour>
      <point x="152" y="249" type="line"/>
      <point x="213" y="249" type="line"/>
      <point x="213" y="338" type="line"/>
      <point x="152" y="338" type="line"/>
    </contour>
  </outline>
</glyph>
<glyph name="fraction" format="1">
  <advance width="600"/>
  <unicode hex="2044"/>
  <outline>
    <contour>
      <point x="476" y="800" type="line"/>
      <point x="37" y="-142" type="line"/>
      <point x="117" y="-142" type="line"/>
      <point x="556" y="800" type="line"/>
    </contour>
  </outline>
</glyph>
<glyph name="euro" format="1">
  <advance width="600"/>
  <unicode hex="20AC"/>
  <outline>
    <contour>
      <point x="438" y="-11"/>
      <point x="512" y="21"/>
      <point x="560" y="113" type="curve"/>
      <point x="471" y="164" type="line"/>
      <point x="441" y="100"/>
      <point x="395" y="85"/>
      <point x="360" y="85" type="curve" smooth="yes"/>
      <point x="280" y="85"/>
      <point x="216" y="135"/>
      <point x="216" y="348" type="curve" smooth="yes"/>
      <point x="216" y="560"/>
      <point x="280" y="610"/>
      <point x="360" y="610" type="curve" smooth="yes"/>
      <point x="394" y="610"/>
      <point x="439" y="596"/>
      <point x="469" y="534" type="curve"/>
      <point x="558" y="585" type="line"/>
      <point x="510" y="675"/>
      <point x="437" y="706"/>
      <point x="360" y="706" type="curve" smooth="yes"/>
      <point x="213" y="706"/>
      <point x="99" y="630"/>
      <point x="99" y="348" type="curve" smooth="yes"/>
      <point x="99" y="65"/>
      <point x="213" y="-11"/>
      <point x="360" y="-11" type="curve" smooth="yes"/>
    </contour>
    <contour>
      <point x="416" y="218" type="line"/>
      <point x="428" y="309" type="line"/>
      <point x="23" y="309" type="line"/>
      <point x="11" y="218" type="line"/>
    </contour>
    <contour>
      <point x="439" y="390" type="line"/>
      <point x="451" y="481" type="line"/>
      <point x="35" y="481" type="line"/>
      <point x="24" y="390" type="line"/>
    </contour>
  </outline>
</glyph>
<glyph name="trademark" format="1">
  <advance width="600"/>
  <unicode hex="2122"/>
  <outline>
    <contour>
      <point x="184" y="426" type="line"/>
      <point x="184" y="700" type="line"/>
      <point x="117" y="700" type="line"/>
      <point x="117" y="426" type="line"/>
    </contour>
    <contour>
      <point x="30" y="643" type="line"/>
      <point x="272" y="643" type="line"/>
      <point x="272" y="700" type="line"/>
      <point x="30" y="700" type="line"/>
    </contour>
    <contour>
      <point x="350" y="426" type="line"/>
      <point x="361" y="700" type="line"/>
      <point x="308" y="700" type="line"/>
      <point x="289" y="426" type="line"/>
    </contour>
    <contour>
      <point x="564" y="426" type="line"/>
      <point x="543" y="700" type="line"/>
      <point x="491" y="700" type="line"/>
      <point x="500" y="426" type="line"/>
    </contour>
    <contour>
      <point x="425" y="545" type="line"/>
      <point x="408" y="465" type="line"/>
      <point x="454" y="465" type="line"/>
      <point x="517" y="700" type="line"/>
      <point x="473" y="700" type="line"/>
    </contour>
    <contour>
      <point x="334" y="700" type="line"/>
      <point x="399" y="465" type="line"/>
      <point x="445" y="465" type="line"/>
      <point x="428" y="545" type="line"/>
      <point x="380" y="700" type="line"/>
    </contour>
  </outline>
</glyph>
<glyph name="upArrow" format="1">
  <advance width="600"/>
  <unicode hex="2191"/>
  <outline>
    <contour>
      <point x="333" y="74" type="line"/>
      <point x="333" y="356" type="line"/>
      <point x="252" y="356" type="line" smooth="yes"/>
      <point x="252" y="74" type="line"/>
    </contour>
    <contour>
      <point x="292" y="473" type="line"/>
      <point x="191" y="335" type="line"/>
      <point x="394" y="335" type="line"/>
    </contour>
  </outline>
</glyph>
<glyph name="emptyset" format="1">
  <advance width="600"/>
  <unicode hex="2205"/>
  <outline>
    <contour>
      <point x="463" y="-2"/>
      <point x="593" y="128"/>
      <point x="593" y="288" type="curve" smooth="yes"/>
      <point x="593" y="448"/>
      <point x="463" y="578"/>
      <point x="303" y="578" type="curve" smooth="yes"/>
      <point x="142" y="578"/>
      <point x="12" y="448"/>
      <point x="12" y="288" type="curve" smooth="yes"/>
      <point x="12" y="128"/>
      <point x="142" y="-2"/>
      <point x="303" y="-2" type="curve" smooth="yes"/>
    </contour>
    <contour>
      <point x="194" y="93"/>
      <point x="107" y="180"/>
      <point x="107" y="288" type="curve" smooth="yes"/>
      <point x="107" y="396"/>
      <point x="194" y="483"/>
      <point x="303" y="483" type="curve" smooth="yes"/>
      <point x="411" y="483"/>
      <point x="498" y="396"/>
      <point x="498" y="288" type="curve" smooth="yes"/>
      <point x="498" y="180"/>
      <point x="411" y="93"/>
      <point x="303" y="93" type="curve" smooth="yes"/>
    </contour>
    <contour>
      <point x="9" y="61" type="line"/>
      <point x="64" y="6" type="line"/>
      <point x="577" y="519" type="line"/>
      <point x="522" y="573" type="line"/>
    </contour>
  </outline>
</glyph>
<glyph name="minus" format="1">
  <advance width="600"/>
  <unicode hex="2212"/>
  <outline>
    <contour>
      <point x="106" y="257" type="line"/>
      <point x="499" y="257" type="line"/>
      <point x="499" y="351" type="line"/>
      <point x="106" y="351" type="line"/>
    </contour>
  </outline>
</glyph>
<glyph name="radical" format="1">
  <advance width="600"/>
  <unicode hex="221A"/>
  <outline>
    <contour>
      <point x="292" y="0" type="line"/>
      <point x="487" y="869" type="line"/>
      <point x="375" y="869" type="line"/>
      <point x="180" y="0" type="line"/>
    </contour>
    <contour>
      <point x="277" y="0" type="line"/>
      <point x="277" y="95" type="line"/>
      <point x="112" y="95" type="line"/>
      <point x="112" y="0" type="line"/>
    </contour>
    <contour>
      <point x="209" y="0" type="line"/>
      <point x="125" y="374" type="line"/>
      <point x="13" y="374" type="line"/>
      <point x="97" y="0" type="line"/>
    </contour>
    <contour>
      <point x="602" y="774" type="line"/>
      <point x="602" y="869" type="line"/>
      <point x="447" y="869" type="line"/>
      <point x="447" y="774" type="line"/>
    </contour>
  </outline>
</glyph>
<glyph name="infinity" format="1">
  <advance width="600"/>
  <unicode hex="221E"/>
  <outline>
    <contour>
      <point x="306" y="149"/>
      <point x="335" y="309"/>
      <point x="335" y="309" type="curve" smooth="yes"/>
      <point x="335" y="309"/>
      <point x="306" y="467"/>
      <point x="185" y="477" type="curve" smooth="yes"/>
      <point x="98" y="484"/>
      <point x="32" y="416"/>
      <point x="32" y="309" type="curve" smooth="yes"/>
      <point x="32" y="200"/>
      <point x="98" y="132"/>
      <point x="185" y="139" type="curve" smooth="yes"/>
    </contour>
    <contour>
      <point x="136" y="224"/>
      <point x="118" y="258"/>
      <point x="118" y="309" type="curve" smooth="yes"/>
      <point x="118" y="358"/>
      <point x="136" y="392"/>
      <point x="184" y="392" type="curve" smooth="yes"/>
      <point x="238" y="392"/>
      <point x="260" y="309"/>
      <point x="260" y="309" type="curve" smooth="yes"/>
      <point x="260" y="309"/>
      <point x="238" y="224"/>
      <point x="184" y="224" type="curve" smooth="yes"/>
    </contour>
    <contour>
      <point x="498" y="132"/>
      <point x="564" y="200"/>
      <point x="564" y="309" type="curve" smooth="yes"/>
      <point x="564" y="416"/>
      <point x="498" y="484"/>
      <point x="411" y="477" type="curve" smooth="yes"/>
      <point x="290" y="467"/>
      <point x="261" y="309"/>
      <point x="261" y="309" type="curve" smooth="yes"/>
      <point x="261" y="309"/>
      <point x="290" y="149"/>
      <point x="411" y="139" type="curve" smooth="yes"/>
    </contour>
    <contour>
      <point x="358" y="224"/>
      <point x="336" y="309"/>
      <point x="336" y="309" type="curve" smooth="yes"/>
      <point x="336" y="309"/>
      <point x="358" y="392"/>
      <point x="412" y="392" type="curve" smooth="yes"/>
      <point x="460" y="392"/>
      <point x="478" y="358"/>
      <point x="478" y="309" type="curve" smooth="yes"/>
      <point x="478" y="258"/>
      <point x="460" y="224"/>
      <point x="412" y="224" type="curve" smooth="yes"/>
    </contour>
  </outline>
</glyph>
<glyph name="approxequal" format="1">
  <advance width="600"/>
  <unicode hex="2248"/>
  <outline>
    <contour>
      <point x="74" y="421"/>
      <point x="143" y="471"/>
      <point x="212" y="471" type="curve" smooth="yes"/>
      <point x="305" y="471"/>
      <point x="314" y="403"/>
      <point x="366" y="403" type="curve" smooth="yes"/>
      <point x="418" y="403"/>
      <point x="474" y="442"/>
      <point x="474" y="442" type="curve"/>
      <point x="500" y="395" type="line"/>
      <point x="492" y="385"/>
      <point x="442" y="336"/>
      <point x="373" y="336" type="curve" smooth="yes"/>
      <point x="280" y="336"/>
      <point x="269" y="402"/>
      <point x="217" y="402" type="curve" smooth="yes"/>
      <point x="165" y="402"/>
      <point x="95" y="357"/>
      <point x="95" y="357" type="curve"/>
      <point x="69" y="410" type="line"/>
    </contour>
    <contour>
      <point x="74" y="235"/>
      <point x="143" y="285"/>
      <point x="212" y="285" type="curve" smooth="yes"/>
      <point x="305" y="285"/>
      <point x="314" y="217"/>
      <point x="366" y="217" type="curve" smooth="yes"/>
      <point x="418" y="217"/>
      <point x="474" y="257"/>
      <point x="474" y="257" type="curve"/>
      <point x="500" y="210" type="line"/>
      <point x="492" y="200"/>
      <point x="442" y="151"/>
      <point x="373" y="151" type="curve" smooth="yes"/>
      <point x="280" y="151"/>
      <point x="269" y="217"/>
      <point x="217" y="217" type="curve" smooth="yes"/>
      <point x="165" y="217"/>
      <point x="95" y="172"/>
      <point x="95" y="172" type="curve"/>
      <point x="69" y="224" type="line"/>
    </contour>
  </outline>
</glyph>
<glyph name="notequal" format="1">
  <advance width="600"/>
  <unicode hex="2260"/>
  <outline>
    <contour>
      <point x="236" y="83" type="line"/>
      <point x="454" y="532" type="line"/>
      <point x="352" y="532" type="line"/>
      <point x="135" y="83" type="line"/>
    </contour>
    <component base="equal"/>
  </outline>
</glyph>
<glyph name="greaterequal" format="1">
  <advance width="600"/>
  <unicode hex="2265"/>
  <outline>
    <contour>
      <point x="165" y="613" type="line"/>
      <point x="116" y="540" type="line"/>
      <point x="393" y="367" type="line"/>
      <point x="474" y="459" type="line"/>
    </contour>
    <contour>
      <point x="410" y="459" type="line"/>
      <point x="410" y="360" type="line"/>
      <point x="474" y="360" type="line"/>
      <point x="474" y="459" type="line"/>
    </contour>
    <contour>
      <point x="393" y="452" type="line"/>
      <point x="116" y="279" type="line"/>
      <point x="165" y="206" type="line"/>
      <point x="474" y="360" type="line"/>
    </contour>
    <contour>
      <point x="124" y="169" type="line"/>
      <point x="124" y="77" type="line"/>
      <point x="474" y="77" type="line"/>
      <point x="474" y="169" type="line"/>
    </contour>
  </outline>
</glyph>
<glyph name="lozenge" format="1">
  <advance width="600"/>
  <unicode hex="25CA"/>
  <outline>
    <contour>
      <point x="244" y="672" type="line"/>
      <point x="451" y="331" type="line"/>
      <point x="564" y="350" type="line"/>
      <point x="354" y="700" type="line"/>
    </contour>
    <contour>
      <point x="247" y="700" type="line"/>
      <point x="247" y="649" type="line"/>
      <point x="354" y="649" type="line"/>
      <point x="354" y="700" type="line"/>
    </contour>
    <contour>
      <point x="37" y="350" type="line"/>
      <point x="150" y="331" type="line"/>
      <point x="357" y="672" type="line"/>
      <point x="247" y="700" type="line"/>
    </contour>
    <contour>
      <point x="564" y="350" type="line"/>
      <point x="451" y="369" type="line"/>
      <point x="244" y="28" type="line"/>
      <point x="354" y="0" type="line"/>
    </contour>
    <contour>
      <point x="354" y="51" type="line"/>
      <point x="247" y="51" type="line"/>
      <point x="247" y="0" type="line"/>
      <point x="354" y="0" type="line"/>
    </contour>
    <contour>
      <point x="357" y="28" type="line"/>
      <point x="150" y="369" type="line"/>
      <point x="37" y="350" type="line"/>
      <point x="247" y="0" type="line"/>
    </contour>
  </outline>
</glyph>
<glyph name="G.ss01" format="1">
  <advance width="600"/>
  <outline>
    <contour>
      <point x="467" y="-11"/>
      <point x="555" y="90"/>
      <point x="555" y="303" type="curve"/>
      <point x="451" y="333" type="line"/>
      <point x="451" y="135"/>
      <point x="404" y="85"/>
      <point x="317" y="85" type="curve" smooth="yes"/>
      <point x="230" y="85"/>
      <point x="168" y="131"/>
      <point x="168" y="348" type="curve" smooth="yes"/>
      <point x="168" y="565"/>
      <point x="225" y="610"/>
      <point x="312" y="610" type="curve" smooth="yes"/>
      <point x="366" y="610"/>
      <point x="408" y="585"/>
      <point x="437" y="523" type="curve"/>
      <point x="540" y="579" type="line"/>
      <point x="492" y="672"/>
      <point x="409" y="706"/>
      <point x="312" y="706" type="curve" smooth="yes"/>
      <point x="162" y="706"/>
      <point x="51" y="635"/>
      <point x="51" y="348" type="curve" smooth="yes"/>
      <point x="51" y="60"/>
      <point x="167" y="-11"/>
      <point x="317" y="-11" type="curve" smooth="yes"/>
    </contour>
    <contour>
      <point x="555" y="297" type="line"/>
      <point x="555" y="391" type="line"/>
      <point x="318" y="391" type="line"/>
      <point x="318" y="297" type="line"/>
    </contour>
  </outline>
</glyph>
<glyph name="Q.ss01" format="1">
  <advance width="600"/>
  <outline>
    <contour>
      <point x="447" y="-11"/>
      <point x="555" y="60"/>
      <point x="555" y="348" type="curve" smooth="yes"/>
      <point x="555" y="635"/>
      <point x="447" y="706"/>
      <point x="294" y="706" type="curve" smooth="yes"/>
      <point x="141" y="706"/>
      <point x="33" y="635"/>
      <point x="33" y="348" type="curve" smooth="yes"/>
      <point x="33" y="60"/>
      <point x="141" y="-11"/>
      <point x="294" y="-11" type="curve" smooth="yes"/>
    </contour>
    <contour>
      <point x="586" y="-56" type="line"/>
      <point x="578" y="21"/>
      <point x="496" y="117"/>
      <point x="345" y="90" type="curve"/>
      <point x="360" y="-5" type="line"/>
      <point x="433" y="13"/>
      <point x="489" y="-60"/>
      <point x="502" y="-132" type="curve"/>
    </contour>
    <contour>
      <point x="208" y="85"/>
      <point x="150" y="137"/>
      <point x="150" y="348" type="curve" smooth="yes"/>
      <point x="150" y="558"/>
      <point x="208" y="610"/>
      <point x="294" y="610" type="curve" smooth="yes"/>
      <point x="380" y="610"/>
      <point x="438" y="558"/>
      <point x="438" y="348" type="curve" smooth="yes"/>
      <point x="438" y="137"/>
      <point x="380" y="85"/>
      <point x="294" y="85" type="curve" smooth="yes"/>
    </contour>
  </outline>
</glyph>
<glyph name="X.ss01" format="1">
  <advance width="600"/>
  <outline>
    <contour>
      <point x="250" y="371" type="line"/>
      <point x="46" y="0" type="line"/>
      <point x="173" y="0" type="line"/>
      <point x="347" y="332" type="line"/>
    </contour>
    <contour>
      <point x="347" y="332" type="line"/>
      <point x="552" y="700" type="line"/>
      <point x="426" y="700" type="line"/>
      <point x="250" y="371" type="line"/>
    </contour>
    <contour>
      <point x="426" y="0" type="line"/>
      <point x="552" y="0" type="line"/>
      <point x="348" y="371" type="line"/>
      <point x="251" y="332" type="line"/>
    </contour>
    <contour>
      <point x="173" y="700" type="line"/>
      <point x="46" y="700" type="line"/>
      <point x="251" y="332" type="line"/>
      <point x="348" y="371" type="line"/>
    </contour>
  </outline>
</glyph>
<glyph name="a.ss01" format="1">
  <advance width="600"/>
  <outline>
    <contour>
      <point x="505" y="369" type="line"/>
      <point x="505" y="460"/>
      <point x="428" y="512"/>
      <point x="302" y="512" type="curve"/>
      <point x="207" y="512"/>
      <point x="129" y="487"/>
      <point x="89" y="446" type="curve"/>
      <point x="161" y="372" type="line"/>
      <point x="186" y="400"/>
      <point x="230" y="416"/>
      <point x="295" y="416" type="curve"/>
      <point x="372" y="416"/>
      <point x="393" y="397"/>
      <point x="393" y="345" type="curve"/>
    </contour>
    <contour>
      <point x="409" y="-11"/>
      <point x="459" y="76"/>
      <point x="459" y="76" type="curve"/>
      <point x="411" y="153" type="line"/>
      <point x="398" y="114"/>
      <point x="345" y="84"/>
      <point x="288" y="84" type="curve"/>
      <point x="203" y="84"/>
      <point x="171" y="101"/>
      <point x="171" y="153" type="curve"/>
      <point x="59" y="153" type="line"/>
      <point x="59" y="41"/>
      <point x="129" y="-11"/>
      <point x="272" y="-11" type="curve"/>
    </contour>
    <contour>
      <point x="171" y="153" type="line"/>
      <point x="171" y="207"/>
      <point x="193" y="224"/>
      <point x="319" y="224" type="curve"/>
      <point x="292" y="316" type="line"/>
      <point x="133" y="316"/>
      <point x="59" y="264"/>
      <point x="59" y="153" type="curve"/>
    </contour>
    <contour>
      <point x="528" y="-11"/>
      <point x="553" y="-9"/>
      <point x="565" y="-6" type="curve"/>
      <point x="565" y="83" type="line"/>
      <point x="559" y="82"/>
      <point x="551" y="81"/>
      <point x="547" y="81" type="curve"/>
      <point x="515" y="81"/>
      <point x="505" y="97"/>
      <point x="505" y="145" type="curve"/>
      <point x="393" y="122" type="line"/>
      <point x="393" y="36"/>
      <point x="444" y="-11"/>
      <point x="515" y="-11" type="curve"/>
    </contour>
    <contour>
      <point x="471" y="224" type="line"/>
      <point x="471" y="316" type="line"/>
      <point x="292" y="316" type="line"/>
      <point x="319" y="224" type="line"/>
    </contour>
    <contour>
      <point x="505" y="145" type="line"/>
      <point x="505" y="297" type="line"/>
      <point x="393" y="294" type="line"/>
      <point x="393" y="122" type="line"/>
    </contour>
    <contour>
      <point x="505" y="209" type="line"/>
      <point x="505" y="369" type="line"/>
      <point x="393" y="345" type="line"/>
      <point x="393" y="207" type="line"/>
    </contour>
  </outline>
</glyph>
<glyph name="g.ss01" format="1">
  <advance width="600"/>
  <outline>
    <contour>
      <point x="566" y="503" type="line"/>
      <point x="498" y="503"/>
      <point x="428" y="453"/>
      <point x="442" y="367" type="curve"/>
      <point x="524" y="345" type="line"/>
      <point x="520" y="403"/>
      <point x="565" y="406"/>
      <point x="591" y="407" type="curve"/>
    </contour>
    <contour>
      <point x="407" y="149"/>
      <point x="525" y="188"/>
      <point x="525" y="331" type="curve" smooth="yes"/>
      <point x="525" y="473"/>
      <point x="417" y="512"/>
      <point x="301" y="512" type="curve" smooth="yes"/>
      <point x="184" y="512"/>
      <point x="76" y="473"/>
      <point x="76" y="331" type="curve" smooth="yes"/>
      <point x="76" y="188"/>
      <point x="184" y="149"/>
      <point x="301" y="149" type="curve" smooth="yes"/>
    </contour>
    <contour>
      <point x="224" y="244"/>
      <point x="194" y="267"/>
      <point x="194" y="331" type="curve" smooth="yes"/>
      <point x="194" y="394"/>
      <point x="218" y="417"/>
      <point x="301" y="417" type="curve" smooth="yes"/>
      <point x="383" y="417"/>
      <point x="407" y="401"/>
      <point x="407" y="331" type="curve" smooth="yes"/>
      <point x="407" y="267"/>
      <point x="377" y="244"/>
      <point x="301" y="244" type="curve" smooth="yes"/>
    </contour>
    <contour>
      <point x="275" y="-1" type="line"/>
      <point x="288" y="87" type="line"/>
      <point x="270" y="87" type="line" smooth="yes"/>
      <point x="192" y="87"/>
      <point x="211" y="142"/>
      <point x="234" y="170" type="curve"/>
      <point x="175" y="199" type="line"/>
      <point x="150" y="181"/>
      <point x="95" y="154"/>
      <point x="95" y="92" type="curve" smooth="yes"/>
      <point x="95" y="31"/>
      <point x="179" y="-1"/>
      <point x="260" y="-1" type="curve" smooth="yes"/>
    </contour>
    <contour>
      <point x="65" y="-153"/>
      <point x="159" y="-195"/>
      <point x="307" y="-195" type="curve"/>
      <point x="307" y="-104" type="line"/>
      <point x="241" y="-104"/>
      <point x="203" y="-95"/>
      <point x="186" y="-69" type="curve" smooth="yes"/>
      <point x="171" y="-45"/>
      <point x="185" y="-1"/>
      <point x="206" y="17" type="curve"/>
      <point x="135" y="45" type="line"/>
      <point x="110" y="27"/>
      <point x="65" y="-7"/>
      <point x="65" y="-69" type="curve" smooth="yes"/>
    </contour>
    <contour>
      <point x="549" y="46"/>
      <point x="482" y="87"/>
      <point x="372" y="87" type="curve"/>
      <point x="337" y="-1" type="line"/>
      <point x="429" y="-1"/>
      <point x="440" y="-19"/>
      <point x="434" y="-54" type="curve" smooth="yes"/>
      <point x="427" y="-91"/>
      <point x="378" y="-104"/>
      <point x="307" y="-104" type="curve"/>
      <point x="307" y="-195" type="line"/>
      <point x="465" y="-195"/>
      <point x="540" y="-138"/>
      <point x="545" y="-43" type="curve" smooth="yes"/>
    </contour>
    <contour>
      <point x="372" y="87" type="line"/>
      <point x="372" y="87"/>
      <point x="371" y="87"/>
      <point x="371" y="87" type="curve" smooth="yes"/>
      <point x="288" y="87" type="line"/>
      <point x="275" y="-1" type="line"/>
      <point x="337" y="-1" type="line"/>
    </contour>
  </outline>
</glyph>
<glyph name="i.ss01" format="1">
  <advance width="600"/>
  <outline>
    <contour>
      <point x="460" y="-11"/>
      <point x="497" y="-1"/>
      <point x="505" y="0" type="curve"/>
      <point x="505" y="92" type="line"/>
      <point x="496" y="90"/>
      <point x="448" y="79"/>
      <point x="414" y="79" type="curve"/>
      <point x="384" y="79"/>
      <point x="360" y="89"/>
      <point x="360" y="152" type="curve"/>
      <point x="248" y="122" type="line"/>
      <point x="248" y="16"/>
      <point x="318" y="-11"/>
      <point x="393" y="-11" type="curve"/>
    </contour>
    <contour>
      <point x="360" y="152" type="line"/>
      <point x="360" y="500" type="line"/>
      <point x="248" y="500" type="line"/>
      <point x="248" y="122" type="line"/>
    </contour>
    <contour>
      <point x="253" y="405" type="line"/>
      <point x="253" y="500" type="line"/>
      <point x="113" y="500" type="line"/>
      <point x="113" y="405" type="line"/>
    </contour>
    <contour>
      <point x="342" y="621"/>
      <point x="375" y="655"/>
      <point x="375" y="698" type="curve" smooth="yes"/>
      <point x="375" y="741"/>
      <point x="342" y="775"/>
      <point x="299" y="775" type="curve" smooth="yes"/>
      <point x="255" y="775"/>
      <point x="222" y="741"/>
      <point x="222" y="698" type="curve" smooth="yes"/>
      <point x="222" y="655"/>
      <point x="255" y="621"/>
      <point x="299" y="621" type="curve" smooth="yes"/>
    </contour>
  </outline>
</glyph>
<glyph name="l.ss01" format="1">
  <advance width="600"/>
  <outline>
    <contour>
      <point x="352" y="152" type="line"/>
      <point x="352" y="800" type="line"/>
      <point x="240" y="800" type="line"/>
      <point x="240" y="122" type="line"/>
    </contour>
    <contour>
      <point x="465" y="-11"/>
      <point x="514" y="-1"/>
      <point x="520" y="0" type="curve"/>
      <point x="520" y="92" type="line"/>
      <point x="511" y="90"/>
      <point x="452" y="79"/>
      <point x="417" y="79" type="curve"/>
      <point x="390" y="79"/>
      <point x="352" y="84"/>
      <point x="352" y="152" type="curve"/>
      <point x="240" y="122" type="line"/>
      <point x="240" y="9"/>
      <point x="324" y="-11"/>
      <point x="396" y="-11" type="curve"/>
    </contour>
    <contour>
      <point x="245" y="705" type="line"/>
      <point x="245" y="800" type="line"/>
      <point x="88" y="800" type="line"/>
      <point x="88" y="705" type="line"/>
    </contour>
  </outline>
</glyph>
<glyph name="t.ss01" format="1">
  <advance width="600"/>
  <outline>
    <contour>
      <point x="355" y="0" type="line"/>
      <point x="355" y="680" type="line"/>
      <point x="242" y="680" type="line"/>
      <point x="242" y="0" type="line"/>
    </contour>
    <contour>
      <point x="473" y="0" type="line"/>
      <point x="473" y="95" type="line"/>
      <point x="294" y="95" type="line"/>
      <point x="294" y="0" type="line"/>
    </contour>
    <contour>
      <point x="513" y="405" type="line"/>
      <point x="513" y="500" type="line"/>
      <point x="116" y="500" type="line"/>
      <point x="116" y="405" type="line"/>
    </contour>
  </outline>
</glyph>
<glyph name="three.ss01" format="1">
  <advance width="600"/>
  <outline>
    <contour>
      <point x="449" y="-11"/>
      <point x="541" y="86"/>
      <point x="541" y="214" type="curve" smooth="yes"/>
      <point x="541" y="340"/>
      <point x="436" y="420"/>
      <point x="321" y="389" type="curve"/>
      <point x="269" y="313" type="line"/>
      <point x="363" y="347"/>
      <point x="433" y="299"/>
      <point x="433" y="214" type="curve" smooth="yes"/>
      <point x="433" y="136"/>
      <point x="385" y="85"/>
      <point x="305" y="85" type="curve" smooth="yes"/>
      <point x="236" y="85"/>
      <point x="189" y="114"/>
      <point x="163" y="168" type="curve"/>
      <point x="65" y="116" type="line"/>
      <point x="104" y="38"/>
      <point x="187" y="-11"/>
      <point x="308" y="-11" type="curve" smooth="yes"/>
    </contour>
    <contour>
      <point x="387" y="605" type="line"/>
      <point x="198" y="388" type="line"/>
      <point x="269" y="313" type="line"/>
      <point x="517" y="605" type="line"/>
    </contour>
    <contour>
      <point x="517" y="700" type="line"/>
      <point x="93" y="700" type="line"/>
      <point x="93" y="605" type="line"/>
      <point x="517" y="605" type="line"/>
    </contour>
  </outline>
</glyph>
<glyph name="x.ss01" format="1">
  <advance width="600"/>
  <outline>
    <contour>
      <point x="250" y="265" type="line"/>
      <point x="46" y="0" type="line"/>
      <point x="179" y="0" type="line"/>
      <point x="347" y="237" type="line"/>
    </contour>
    <contour>
      <point x="347" y="237" type="line"/>
      <point x="555" y="500" type="line"/>
      <point x="426" y="500" type="line"/>
      <point x="250" y="265" type="line"/>
    </contour>
    <contour>
      <point x="420" y="0" type="line"/>
      <point x="552" y="0" type="line"/>
      <point x="348" y="265" type="line"/>
      <point x="251" y="237" type="line"/>
    </contour>
    <contour>
      <point x="179" y="500" type="line"/>
      <point x="46" y="500" type="line"/>
      <point x="251" y="237" type="line"/>
      <point x="348" y="265" type="line"/>
    </contour>
  </outline>
</glyph>
